<?xml version="1.0" standalone="no"?><!DOCTYPE svg PUBLIC "-//W3C//DTD SVG 1.1//EN" "http://www.w3.org/Graphics/SVG/1.1/DTD/svg11.dtd"><svg t="1665766361241" class="icon" viewBox="0 0 1024 1024" version="1.1" xmlns="http://www.w3.org/2000/svg" p-id="1707" xmlns:xlink="http://www.w3.org/1999/xlink" width="128" height="128"><path d="M979.1488 750.7456l-61.952-340.0704c-9.216-50.6368-53.6064-87.5008-105.3696-87.5008H251.1872c-51.7632 0-96.1024 36.8128-105.3696 87.5008l-61.2352 336.0768c-11.8272 65.024 28.3648 128.2048 92.5696 145.408 67.6352 18.1248 110.1824-28.7744 129.1264-95.8464l18.688-54.7328c5.1712-18.2784 9.3696-42.496 25.6512-50.5856-0.768-3.9936-1.1776-8.0384-1.1776-12.2368 0-9.0624 2.7136-18.1248 7.3216-26.6752-17.5616 6.656-36.5056 10.3424-56.3712 10.3424-88.0128 0-159.3856-71.3728-159.3856-159.3856 0-88.0128 71.3728-159.3856 159.3856-159.3856 88.0128 0 159.3856 71.3728 159.3856 159.3856 0 38.8608-13.9264 74.4448-37.0176 102.0928-26.0608 0.768-48.4864 15.7696-59.904 37.5296 15.872-21.4528 43.2128-37.632 67.4816-37.632 36.8128 0 71.6288 43.3664 71.6288 79.9744 0 1.792-0.1536 3.5328-0.256 5.2736l53.2992 0.7168c-0.1536-1.7408-0.256-3.4816-0.256-5.2736 0-36.608 23.7568-75.3152 60.5696-75.3152 21.8112 0 48.7936 13.9776 67.2768 32.9216-11.5712-22.6816-35.072-38.2464-62.2592-38.2464-6.2464 0-12.2368 0.8704-17.9712 2.4064a158.57152 158.57152 0 0 1-39.0656-104.448c0-88.0128 71.3728-159.3856 159.3856-159.3856s159.3856 71.3728 159.3856 159.3856c0 88.0128-71.3728 159.3856-159.3856 159.3856-9.1648 0-18.176-0.8192-26.9312-2.304 5.1712 8.6528 8.2944 17.7152 8.2944 26.624 0 7.2704-1.2288 14.2848-3.4304 20.8384 11.2128 9.4208 19.3024 22.5792 22.2208 37.7856l9.8304 51.0464c13.4656 69.9392 82.8928 114.4832 152.5248 97.8432 64.5632-15.5136 105.8304-78.4384 93.952-143.5136z" fill="#53ECF4" p-id="1708"></path><path d="M437.4016 687.7184m-57.344 0a57.344 57.344 0 1 0 114.688 0 57.344 57.344 0 1 0-114.688 0Z" fill="#BC9BE0" p-id="1709"></path><path d="M632.8832 687.7184m-57.344 0a57.344 57.344 0 1 0 114.688 0 57.344 57.344 0 1 0-114.688 0Z" fill="#BC9BE0" p-id="1710"></path><path d="M737.5872 373.7088c-79.7184 0-144.384 64.6144-144.384 144.384 0 36.1984 13.3632 69.2736 35.3792 94.6176 5.2224-1.3824 10.6496-2.2016 16.2816-2.2016 29.9008 0 54.8864 20.736 61.5424 48.5376 10.0352 2.2016 20.4288 3.4304 31.1296 3.4304 79.7184 0 144.384-64.6144 144.384-144.384 0.0512-79.7184-64.6144-144.384-144.3328-144.384z" fill="#FBC07C" p-id="1711"></path><path d="M722.5856 477.2864c-24.32 0-44.1344-19.8144-44.1344-44.1344s19.8144-44.1344 44.1344-44.1344c24.3712 0 44.1856 19.8144 44.1856 44.1344s-19.8144 44.1344-44.1856 44.1344z m0-57.6c-7.424 0-13.4144 6.0416-13.4144 13.4144s6.0416 13.4144 13.4144 13.4144 13.4656-6.0416 13.4656-13.4144-6.0416-13.4144-13.4656-13.4144zM722.5856 612.9152c-23.3472 0-42.3936-18.9952-42.3936-42.3936s18.9952-42.3936 42.3936-42.3936c23.3472 0 42.3936 18.9952 42.3936 42.3936s-19.0464 42.3936-42.3936 42.3936z m0-54.0672a11.66848 11.66848 0 1 0 11.6736 11.6736c0-6.4512-5.2224-11.6736-11.6736-11.6736zM654.7456 545.536c-23.9104 0-43.3664-19.456-43.3664-43.3664 0-23.9104 19.456-43.3664 43.3664-43.3664 23.9104 0 43.3664 19.456 43.3664 43.3664 0 23.9104-19.456 43.3664-43.3664 43.3664z m0-56.0128c-6.9632 0-12.6464 5.6832-12.6464 12.6464s5.6832 12.6464 12.6464 12.6464 12.6464-5.6832 12.6464-12.6464-5.6832-12.6464-12.6464-12.6464zM790.0672 545.536c-23.9104 0-43.3664-19.456-43.3664-43.3664 0-23.9104 19.456-43.3664 43.3664-43.3664s43.3664 19.456 43.3664 43.3664c-0.0512 23.9104-19.456 43.3664-43.3664 43.3664z m0-56.0128c-6.9632 0-12.6464 5.6832-12.6464 12.6464s5.6832 12.6464 12.6464 12.6464 12.6464-5.6832 12.6464-12.6464c-0.0512-6.9632-5.6832-12.6464-12.6464-12.6464z" fill="#333333" p-id="1712"></path><path d="M426.1888 610.6112a143.68256 143.68256 0 0 0 33.536-92.5184c0-79.7184-64.6144-144.384-144.384-144.384-79.7184 0-144.384 64.6144-144.384 144.384 0 79.7184 64.6144 144.384 144.384 144.384 18.7904 0 36.6592-3.6352 53.1456-10.1376 8.6528-23.8592 31.0784-40.96 57.7024-41.728z" fill="#FBC07C" p-id="1713"></path><path d="M303.104 605.9008h-6.4512c-20.4288 0-37.0688-16.64-37.0688-37.0688v-32.3072h-32.3072c-20.4288 0-37.0688-16.64-37.0688-37.0688v-6.4512c0-20.4288 16.64-37.0688 37.0688-37.0688h32.3072v-32.3072c0-20.4288 16.64-37.0688 37.0688-37.0688h6.4512c20.4288 0 37.0688 16.64 37.0688 37.0688v32.3072h32.3072c20.4288 0 37.0688 16.64 37.0688 37.0688v6.4512c0 20.4288-16.64 37.0688-37.0688 37.0688h-32.3072v32.3072c0 20.4288-16.5888 37.0688-37.0688 37.0688zM227.2768 486.656c-3.4816 0-6.3488 2.8672-6.3488 6.3488v6.4512c0 3.4816 2.8672 6.3488 6.3488 6.3488h47.6672c8.4992 0 15.36 6.8608 15.36 15.36v47.6672c0 3.4816 2.8672 6.3488 6.3488 6.3488h6.4512c3.4816 0 6.3488-2.8672 6.3488-6.3488v-47.6672c0-8.4992 6.8608-15.36 15.36-15.36h47.6672c3.4816 0 6.3488-2.8672 6.3488-6.3488v-6.4512c0-3.4816-2.8672-6.3488-6.3488-6.3488h-47.6672c-8.4992 0-15.36-6.8608-15.36-15.36v-47.6672c0-3.4816-2.8672-6.3488-6.3488-6.3488h-6.4512c-3.4816 0-6.3488 2.8672-6.3488 6.3488v47.6672c0 8.4992-6.8608 15.36-15.36 15.36h-47.6672zM484.1984 370.3808h-41.216c-8.4992 0-15.36-6.8608-15.36-15.36s6.8608-15.36 15.36-15.36h41.216c8.4992 0 15.36 6.8608 15.36 15.36s-6.8608 15.36-15.36 15.36zM578.048 370.3808h-46.4896c-8.4992 0-15.36-6.8608-15.36-15.36s6.8608-15.36 15.36-15.36h46.4896c8.4992 0 15.36 6.8608 15.36 15.36s-6.8608 15.36-15.36 15.36z" fill="#333333" p-id="1714"></path><path d="M994.1504 739.84l-65.024-358.9632c-11.008-60.8256-63.8976-104.96-125.696-104.96h-21.8624v-18.5344c0-26.1632-21.2992-47.4624-47.4624-47.4624h-81.7664c-26.1632 0-47.4624 21.2992-47.4624 47.4624v18.5344h-49.1008v-24.832c0-19.7632-12.9536-36.5056-30.8224-42.2912V200.704a18.0736 18.0736 0 0 1 18.0736-18.0736h187.1872c8.4992 0 15.36-6.8608 15.36-15.36s-6.8608-15.36-15.36-15.36h-187.1872c-26.88 0-48.7936 21.8624-48.7936 48.7936v8.0896c-17.8688 5.7856-30.8224 22.528-30.8224 42.2912v24.832h-44.288v-18.5344c0-26.1632-21.2992-47.4624-47.4624-47.4624H289.8944c-26.1632 0-47.4624 21.2992-47.4624 47.4624v18.5344H215.04c-61.7984 0-114.6368 44.1344-125.696 104.96L25.088 735.5904c-13.7216 75.8784 33.792 150.9888 108.288 171.0592 78.7456 21.1968 160.768-25.4464 182.8352-103.9872l18.8928-67.2768a53.4016 53.4016 0 0 1 13.1584-22.784c13.9264 28.2624 42.9568 47.8208 76.544 47.8208 39.8336 0 73.2672-27.4432 82.6368-64.4096H537.6c9.3696 36.9664 42.8032 64.4096 82.6368 64.4096 28.5184 0 53.76-14.1312 69.2224-35.6352 2.5088 4.7104 4.352 9.7792 5.376 15.0528l10.2912 53.8624c7.6288 39.8336 30.6176 73.9328 64.7168 95.8976 24.1152 15.5648 51.4048 23.552 79.3088 23.552 11.5712 0 23.1936-1.3824 34.7648-4.1472 75.7248-18.2272 124.16-92.5184 110.2336-169.1648z m-358.5536-482.4064c0-9.216 7.5264-16.7424 16.7424-16.7424h81.7664c9.216 0 16.7424 7.5264 16.7424 16.7424v18.5344h-115.2512v-18.5344z m-141.4656-6.2976c0-7.5776 6.144-13.7216 13.7216-13.7216h3.4816c7.5776 0 13.7216 6.144 13.7216 13.7216v24.832h-30.9248v-24.832z m-220.9792 6.2976c0-9.216 7.5264-16.7424 16.7424-16.7424h81.7664c9.216 0 16.7424 7.5264 16.7424 16.7424v18.5344H273.152v-18.5344z m80.384 370.688c-1.0752 1.6384-2.0992 3.328-3.072 5.0176-0.6656 1.2288-1.3312 2.4576-1.9456 3.7376-0.4096 0.768-0.8192 1.536-1.1776 2.304a143.7696 143.7696 0 0 1-47.0016 7.8848c-79.4112 0-144.0256-64.6144-144.0256-144.0256s64.6144-144.0256 144.0256-144.0256 144.0256 64.6144 144.0256 144.0256c0 31.5392-10.4448 62.2592-29.4912 87.2448-1.0752 0.1024-2.0992 0.3072-3.1744 0.4608-0.8704 0.1536-1.7408 0.256-2.56 0.4096-1.28 0.256-2.5088 0.512-3.7376 0.8192-1.3312 0.3072-2.6624 0.6656-3.9936 1.024-0.8704 0.256-1.7408 0.4608-2.6112 0.7168-2.2528 0.7168-4.4032 1.536-6.5536 2.4064-0.4608 0.2048-0.9728 0.4096-1.4336 0.6144a84.3008 84.3008 0 0 0-36.3008 29.9008c-0.3072 0.5632-0.6144 1.024-0.9728 1.4848z m71.2192 101.5296c-26.624 0-48.8448-19.2-53.6064-44.4928v-0.0512a55.07072 55.07072 0 0 1-0.9728-10.0864 55.02976 55.02976 0 0 1 8.192-28.6208c0.256-0.4096 0.512-0.8704 0.768-1.28 0.4096-0.6144 0.8192-1.1776 1.2288-1.792 0.5632-0.8192 1.1264-1.5872 1.7408-2.3552 0.3072-0.4096 0.6656-0.8192 0.9728-1.2288 0.9216-1.0752 1.8432-2.0992 2.816-3.1232l0.3072-0.3072c1.2288-1.2288 2.4576-2.3552 3.7888-3.4304 0 0 0.0512 0 0.0512-0.0512 1.2288-0.9728 2.4576-1.9456 3.7888-2.816l0.9216-0.6144c1.024-0.6656 2.0992-1.3312 3.1744-1.8944 0.4096-0.256 0.8192-0.4608 1.2288-0.7168a58.61888 58.61888 0 0 1 6.6048-2.9184c0.512-0.2048 0.9728-0.3584 1.4848-0.5632 1.0752-0.3584 2.1504-0.6656 3.2768-0.9728 0.256-0.0512 0.4608-0.1024 0.7168-0.2048 3.84-0.9728 7.8336-1.536 11.9296-1.6384 0.0512 0 0.1536-0.0512 0.2048-0.0512 0.4608 0 0.9216-0.0512 1.3824-0.0512 30.1056 0 54.6304 24.4736 54.6304 54.6304 0 1.4848-0.1024 2.9184-0.2048 4.352v0.1536c-2.3552 28.0064-25.856 50.1248-54.4256 50.1248z m195.4816 0c-28.6208 0-52.0704-22.1184-54.3744-50.1248v-0.1536c-0.1024-1.4336-0.2048-2.8672-0.2048-4.352 0-25.2416 17.2032-46.4384 40.4992-52.6848h0.1024c2.304-0.6144 4.5568-1.0752 6.8096-1.3824 0.1536 0 0.3072-0.0512 0.4608-0.0512a51.11296 51.11296 0 0 1 11.9808-0.2048c0.512 0.0512 0.9728 0.1536 1.4848 0.2048 1.2288 0.1536 2.4576 0.3072 3.6864 0.5632l1.536 0.3072c1.2288 0.256 2.4576 0.5632 3.6352 0.9216 0.4096 0.1024 0.768 0.256 1.1776 0.3584 1.4336 0.4608 2.816 0.9728 4.1984 1.536 0.1536 0.0512 0.3072 0.1024 0.4096 0.1536 6.4512 2.7648 12.288 6.7072 17.2032 11.6224l0.1024 0.1024c1.1264 1.1264 2.2016 2.304 3.2256 3.5328 0.1536 0.1536 0.256 0.3072 0.4096 0.4608 0.8704 1.0752 1.7408 2.2528 2.56 3.3792 0.2048 0.3072 0.4096 0.5632 0.6144 0.8704 0.6656 0.9728 1.2288 1.9968 1.8432 3.0208 2.56 4.4544 4.5056 9.2672 5.7856 14.4384 0.9728 4.096 1.5872 8.3456 1.5872 12.7488 0 1.6896-0.1024 3.328-0.256 4.9152-0.0512 0.7168-0.1536 1.3824-0.256 2.0992-0.1024 0.8704-0.256 1.7408-0.4096 2.56-0.1536 0.8704-0.3584 1.792-0.5632 2.6624-0.1536 0.6144-0.3072 1.1776-0.4608 1.7408-0.256 1.024-0.512 1.9968-0.8704 3.0208-7.2704 21.9648-27.7504 37.7344-51.9168 37.7344z m79.9232-84.3264c-0.1536-0.4608-0.3584-0.8704-0.5632-1.3312-0.4608-1.2288-0.9728-2.4064-1.4848-3.584-0.6656-1.536-1.4336-3.072-2.2016-4.5568-0.3072-0.6144-0.6144-1.2288-0.9216-1.792a84.85376 84.85376 0 0 0-56.832-42.3936c-0.6144-0.1536-1.28-0.256-1.8944-0.3584-1.9456-0.3584-3.9424-0.6656-5.9392-0.9216-0.7168-0.1024-1.4336-0.2048-2.1504-0.256a78.0288 78.0288 0 0 0-14.848-0.1024c-0.512 0.0512-1.024 0.0512-1.536 0.1024-0.768 0.0512-1.4848 0.2048-2.2528 0.3072l-1.28 0.1536c-19.2-25.0368-29.696-55.808-29.696-87.552 0-79.4112 64.6144-144.0256 144.0256-144.0256s144.0256 64.6144 144.0256 144.0256-64.6144 144.0256-144.0256 144.0256c-7.4752 0-14.9504-0.5632-22.4256-1.7408z m176.5888 233.7792c-31.232 7.5264-63.232 2.048-90.2144-15.36-26.9824-17.408-45.1584-44.3392-51.2-75.8784l-10.2912-53.8624c-2.9696-15.616-10.3936-30.1568-21.1968-41.7792 1.024-4.9664 1.536-10.0864 1.6384-15.36 5.6832 0.5632 11.4176 0.8704 17.1008 0.8704 96.3584 0 174.7456-78.3872 174.7456-174.7456s-78.3872-174.7456-174.7456-174.7456S547.84 406.7328 547.84 503.0912c0 35.072 10.5984 69.1712 30.1056 97.9456-0.1024 0.0512-0.1536 0.1024-0.2048 0.1536-1.28 0.7168-2.56 1.4848-3.7888 2.304l-2.9184 1.9968c-1.1776 0.8704-2.3552 1.7408-3.5328 2.6624a90.14784 90.14784 0 0 0-5.9904 5.2224c-0.8704 0.8192-1.6896 1.6384-2.5088 2.4576-1.024 1.0752-2.048 2.2016-3.0208 3.2768-0.768 0.8704-1.536 1.7408-2.2528 2.6112-0.9728 1.1776-1.8432 2.4064-2.7136 3.6352-0.6656 0.9216-1.3312 1.792-1.9456 2.7648-0.8704 1.3312-1.6896 2.7136-2.5088 4.096-0.512 0.9216-1.0752 1.792-1.5872 2.7648-0.8192 1.536-1.5872 3.1744-2.304 4.7616-0.3584 0.8192-0.8192 1.6384-1.1264 2.4576-0.9216 2.2528-1.792 4.5568-2.5088 6.8608-0.1024 0.256-0.2048 0.4608-0.256 0.7168-0.8192 2.6112-1.4848 5.2224-2.048 7.936-0.1536 0.768-0.256 1.5872-0.3584 2.3552-0.3072 1.7408-0.6656 3.4816-0.8704 5.2224h-25.9584c-0.2048-1.792-0.5632-3.4816-0.8704-5.2224-0.1536-0.768-0.2048-1.5872-0.3584-2.3552-0.5632-2.6624-1.2288-5.3248-2.048-7.936-0.0512-0.256-0.1536-0.4608-0.256-0.7168-0.768-2.3552-1.5872-4.608-2.5088-6.8608-0.3584-0.8192-0.768-1.6384-1.1264-2.4576-0.7168-1.5872-1.4848-3.2256-2.304-4.7616-0.512-0.9216-1.0752-1.8432-1.5872-2.7648-0.8192-1.3824-1.5872-2.7648-2.5088-4.096-0.6144-0.9216-1.28-1.8432-1.9456-2.7648a95.744 95.744 0 0 0-2.7136-3.6352c-0.7168-0.9216-1.4848-1.7408-2.2528-2.6112-0.9728-1.1264-1.9456-2.2528-3.0208-3.2768-0.8192-0.8192-1.6384-1.6384-2.5088-2.4576-1.0752-1.024-2.1504-1.9968-3.2768-2.9696-0.9216-0.768-1.792-1.536-2.7136-2.2528-1.1776-0.9216-2.304-1.792-3.5328-2.6624l-2.9184-1.9968c-1.2288-0.8192-2.5088-1.5872-3.7888-2.304-1.024-0.6144-2.048-1.1776-3.072-1.7408-1.3312-0.7168-2.7136-1.3312-4.0448-1.9456-1.0752-0.4608-2.0992-0.9728-3.1744-1.4336-1.4336-0.5632-2.9184-1.0752-4.352-1.5872-0.9216-0.3072-1.792-0.6656-2.7136-0.9728a175.1552 175.1552 0 0 0 25.2928-90.4192c0-96.3584-78.3872-174.7456-174.7456-174.7456S125.6448 406.7328 125.6448 503.0912s78.3872 174.7456 174.7456 174.7456c13.2608 0 26.368-1.536 39.1168-4.4544 0 0.5632-0.1024 1.1264-0.1024 1.6896 0 1.5872 0.0512 3.1744 0.1536 4.7616a84.8896 84.8896 0 0 0-34.0992 47.2064l-18.8928 67.2768c-17.5104 62.4128-82.6368 99.4816-145.2544 82.6368-59.136-15.9232-96.9216-75.6224-86.016-135.8848l64.256-354.7136C128 340.1728 168.1408 306.6368 215.04 306.6368h588.3904c46.9504 0 87.0912 33.536 95.4368 79.7184l65.024 358.9632c11.0592 60.6208-27.2896 119.3984-87.1424 133.7856z" fill="#333333" p-id="1715"></path></svg>