<?xml version="1.0" encoding="utf-8"?>
<!-- Generator: Adobe Illustrator 21.0.0, SVG Export Plug-In . SVG Version: 6.00 Build 0)  -->
<svg version="1.1" id="图层_1" xmlns="http://www.w3.org/2000/svg" xmlns:xlink="http://www.w3.org/1999/xlink" x="0px" y="0px"
	 viewBox="0 0 32 32" style="enable-background:new 0 0 32 32;" xml:space="preserve">
<style type="text/css">
	.st0{fill:#FEFEFE;}
	.st1{fill:none;}
</style>
<path class="st0" d="M20.2,16l8.5-8.5c1.2-1.2,1.2-3.1,0-4.2v0c-1.2-1.2-3.1-1.2-4.2,0L16,11.8L7.5,3.3c-1.2-1.2-3.1-1.2-4.2,0v0
	c-1.2,1.2-1.2,3.1,0,4.2l8.5,8.5l-8.5,8.5c-1.2,1.2-1.2,3.1,0,4.2c1.2,1.2,3.1,1.2,4.2,0l8.5-8.5l8.5,8.5c1.2,1.2,3.1,1.2,4.2,0
	c1.2-1.2,1.2-3.1,0-4.2L20.2,16z"/>
<rect class="st1" width="32" height="32"/>
</svg>
