<?xml version="1.0" standalone="no"?><!DOCTYPE svg PUBLIC "-//W3C//DTD SVG 1.1//EN" "http://www.w3.org/Graphics/SVG/1.1/DTD/svg11.dtd"><svg t="1665766319281" class="icon" viewBox="0 0 1024 1024" version="1.1" xmlns="http://www.w3.org/2000/svg" p-id="1408" width="128" height="128" xmlns:xlink="http://www.w3.org/1999/xlink"><path d="M541.3888 301.312c-435.0464 0-435.0464 207.7696-435.0464 207.7696H971.264s-6.5024-207.7696-429.8752-207.7696z" fill="#53ECF4" p-id="1409"></path><path d="M534.8864 278.5792c79.7184 0 144.0768 7.4752 196.1984 19.5072v-42.2912c0-81.4592-88.9856-147.5072-198.7072-147.5072-109.7216 0-198.7072 66.048-198.7072 147.5072v42.3424c53.1968-12.0832 119.1936-19.5584 201.216-19.5584z" fill="#FBC07C" p-id="1410"></path><path d="M543.7952 647.7312c-348.2624 0-348.2624-138.7008-348.2624-138.7008h692.4288c0 0.0512-5.2224 138.7008-344.1664 138.7008z" fill="#EDC951" p-id="1411"></path><path d="M540.8256 659.7632c-77.824 0-137.3184-6.7072-182.784-16.9472 10.9056 25.4976 53.0944 98.5088 179.0976 98.5088 124.7232 0 167.3216-71.5776 178.7392-97.7408-44.1856 9.8304-101.2736 16.1792-175.0528 16.1792z" fill="#53ECF4" p-id="1412"></path><path d="M922.7264 383.9488c-42.5984-42.1888-101.5808-73.216-176.3328-92.9792v-36.7104c0-102.5536-104.0896-185.9584-232.0384-185.9584S282.368 151.7056 282.368 254.2592v36.7104c-76.1344 19.712-135.7824 50.7904-178.2272 92.9792C42.8544 444.8768 42.1376 506.4704 42.1376 509.0816c0 8.4992 6.8608 15.36 15.36 15.36h70.4c7.68 28.3648 39.3728 88.6272 169.5232 121.6 16.64 35.84 71.3216 120.5248 214.9376 120.5248 142.592 0 197.5808-83.8656 214.4768-119.5008 131.8912-32.8192 165.1712-94.3616 173.568-122.6752h70.8096c4.1472 0 8.1408-1.6896 11.008-4.6592 2.8672-2.9696 4.4544-7.0144 4.352-11.1616 0-2.56-2.56-63.8976-63.8464-124.6208zM313.088 254.2592c0-85.6064 90.3168-155.2384 201.3184-155.2384s201.3184 69.632 201.3184 155.2384v29.44c-50.2272-10.6496-106.8544-16.6912-169.6768-18.0736-1.2288-0.0512-2.4576-0.0512-3.6864-0.0512-8.2944-0.1536-16.6912-0.256-25.2416-0.256-8.8064 0-17.408 0.1024-26.0096 0.256-1.28 0-2.56 0.0512-3.7888 0.0512-64.7168 1.4336-122.8288 7.5264-174.2336 18.2272v-29.5936z m373.8112 401.408c-23.7056 35.3792-73.6768 80.2304-174.4896 80.2304-101.632 0-151.552-45.4144-175.104-81.0496 15.5136 2.816 31.9488 5.12 48.9984 7.1168 1.6384 0.2048 3.328 0.3584 5.0176 0.5632 3.6864 0.4096 7.424 0.8192 11.2128 1.1776 5.1712 0.512 10.3936 0.9728 15.7696 1.3824l7.936 0.6144c4.3008 0.3072 8.6528 0.6144 13.056 0.8704 2.304 0.1536 4.5568 0.3072 6.8608 0.4096a1161.02144 1161.02144 0 0 0 48.128 1.6384c7.3216 0.1024 14.7456 0.2048 22.3232 0.2048 7.2192 0 14.2848-0.0512 21.248-0.2048 1.9456-0.0512 3.84-0.0512 5.7344-0.1024 5.5296-0.1024 10.9568-0.256 16.3328-0.4608l4.7616-0.1536c6.7072-0.256 13.312-0.5632 19.7632-0.9216 1.3824-0.0512 2.7648-0.1536 4.1472-0.256 5.12-0.3072 10.1888-0.6656 15.1552-1.024l6.144-0.4608c5.2736-0.4096 10.496-0.8704 15.5648-1.3824 2.6624-0.256 5.2224-0.512 7.8336-0.8192 3.584-0.3584 7.1168-0.768 10.5984-1.1776 3.072-0.3584 6.0928-0.7168 9.1136-1.1264 2.048-0.256 3.9936-0.5632 5.9904-0.8192 6.912-0.9728 13.6704-1.9456 20.3264-3.072l0.8192-0.1536c2.2528-0.3072 4.5568-0.6656 6.7584-1.024z m143.2064-86.6304c-22.9888 17.6128-60.672 37.1712-121.7024 50.8928-4.1472 0.9216-8.3968 1.8432-12.6976 2.7136-2.6624 0.512-5.3248 1.0752-8.0384 1.5872-4.7616 0.8704-9.5744 1.7408-14.4896 2.56-2.4064 0.4096-4.864 0.768-7.2704 1.1264-5.4784 0.8192-11.008 1.6384-16.6912 2.3552-1.9456 0.256-3.9936 0.512-5.9904 0.7168-6.3488 0.768-12.7488 1.4848-19.3024 2.1504-1.2288 0.1024-2.5088 0.2048-3.7888 0.3584-6.7072 0.6144-13.568 1.2288-20.48 1.6896-0.8704 0.0512-1.6896 0.1536-2.56 0.2048-7.4752 0.512-15.1552 0.9216-22.8864 1.3312-1.4336 0.0512-2.8672 0.1536-4.3008 0.2048-7.68 0.3584-15.5136 0.6144-23.4496 0.768-1.4848 0.0512-3.0208 0.0512-4.5056 0.1024-8.2944 0.1536-16.6912 0.256-25.2928 0.256-4.7104 0-9.3696-0.0512-14.0288-0.0512-1.28 0-2.5088-0.0512-3.7888-0.0512l-10.1888-0.1536c-1.3312-0.0512-2.6112-0.0512-3.9424-0.1024-3.4304-0.1024-6.8096-0.1536-10.1376-0.256-1.0752-0.0512-2.1504-0.0512-3.2256-0.1024-3.8912-0.1536-7.7312-0.256-11.5712-0.4608-0.512 0-0.9728-0.0512-1.4848-0.0512-13.7216-0.6144-27.0336-1.4848-39.8848-2.56-0.1536 0-0.3072-0.0512-0.512-0.0512-4.1472-0.3584-8.2432-0.7168-12.288-1.1264-0.2048 0-0.3584-0.0512-0.5632-0.0512-8.3456-0.8192-16.5376-1.7408-24.5248-2.7648l-1.28-0.1536c-3.1744-0.4096-6.2976-0.8192-9.4208-1.28-1.1776-0.1536-2.4064-0.3584-3.584-0.512-2.304-0.3584-4.5568-0.6656-6.8096-1.024-1.4848-0.2048-2.9696-0.4608-4.4032-0.6656l-4.5568-0.768c-4.0448-0.6656-8.0384-1.3824-11.9296-2.0992-0.4096-0.0512-0.768-0.1536-1.1776-0.2048-128.7168-24.576-166.0416-73.984-176.8448-99.1232h707.2768c-5.12 11.4688-15.7696 27.8528-37.6832 44.5952z m57.856-75.3152H75.008c8.0896-37.2736 46.4384-132.6592 227.6864-175.8208 6.912-1.6384 13.9776-3.2256 21.1456-4.6592 0.512-0.1024 1.024-0.2048 1.5872-0.3072 31.8464-6.4 66.4064-10.9568 103.424-13.7216h0.3072c9.0624-0.6656 18.2784-1.2288 27.5968-1.6896 0.5632-0.0512 1.1264-0.0512 1.7408-0.1024 9.0624-0.4096 18.2272-0.768 27.5456-0.9728 0.8192 0 1.6896-0.0512 2.5088-0.0512 9.4208-0.2048 18.8928-0.3072 28.5696-0.3072 8.8576 0 17.6128 0.1024 26.2656 0.3072l6.8608 0.1536c7.3728 0.2048 14.6432 0.4608 21.8624 0.8192l3.9424 0.1536c7.9872 0.4096 15.872 0.9216 23.6544 1.4848l7.5264 0.6144c5.7344 0.4608 11.3664 0.9728 16.9472 1.536l9.0112 0.9216a824.39168 824.39168 0 0 1 28.5696 3.6352c2.56 0.3584 5.12 0.768 7.68 1.1776a836.73088 836.73088 0 0 1 25.7536 4.4032c107.5712 20.6848 169.216 58.9312 204.0832 92.7232 35.9936 34.9184 49.2032 70.0928 53.9648 89.7536h-65.28z" fill="#333333" p-id="1413"></path><path d="M286.6176 474.4192c-35.84 0-65.024-29.184-65.024-65.024s29.184-65.024 65.024-65.024 65.024 29.184 65.024 65.024-29.184 65.024-65.024 65.024z m0-99.328c-18.944 0-34.304 15.4112-34.304 34.304s15.4112 34.304 34.304 34.304 34.304-15.4112 34.304-34.304-15.4112-34.304-34.304-34.304zM517.12 474.4192c-35.84 0-65.024-29.184-65.024-65.024s29.184-65.024 65.024-65.024 65.024 29.184 65.024 65.024-29.184 65.024-65.024 65.024z m0-99.328c-18.944 0-34.304 15.4112-34.304 34.304s15.4112 34.304 34.304 34.304 34.304-15.4112 34.304-34.304-15.36-34.304-34.304-34.304zM743.2704 474.4192c-35.84 0-65.024-29.184-65.024-65.024s29.184-65.024 65.024-65.024 65.024 29.184 65.024 65.024-29.184 65.024-65.024 65.024z m0-99.328c-18.944 0-34.304 15.4112-34.304 34.304s15.4112 34.304 34.304 34.304 34.304-15.4112 34.304-34.304-15.4112-34.304-34.304-34.304z" fill="#333333" p-id="1414"></path><path d="M205.568 766.5664h52.2752v118.6816H205.568zM763.7504 766.5664h52.2752v118.6816h-52.2752zM358.0416 824.1664h52.2752v118.6816H358.0416zM616.3456 824.1664h52.2752v118.6816h-52.2752z" fill="#FF927C" p-id="1415"></path><path d="M257.8432 897.4336H205.568c-8.4992 0-15.36-6.8608-15.36-15.36v-152.2688c0-8.4992 6.8608-15.36 15.36-15.36h52.2752c8.4992 0 15.36 6.8608 15.36 15.36v152.2688c0 8.448-6.8608 15.36-15.36 15.36z m-36.9152-30.72h21.5552v-121.5488h-21.5552v121.5488zM816.0256 897.4336h-52.2752c-8.4992 0-15.36-6.8608-15.36-15.36v-152.2688c0-8.4992 6.8608-15.36 15.36-15.36h52.2752c8.4992 0 15.36 6.8608 15.36 15.36v152.2688c0 8.448-6.8608 15.36-15.36 15.36z m-36.9152-30.72h21.5552v-121.5488h-21.5552v121.5488zM410.3168 958.208H358.0416c-8.4992 0-15.36-6.8608-15.36-15.36V790.528c0-8.4992 6.8608-15.36 15.36-15.36h52.2752c8.4992 0 15.36 6.8608 15.36 15.36v152.32c0 8.4992-6.8608 15.36-15.36 15.36z m-36.9152-30.72h21.5552V805.888h-21.5552v121.6zM668.672 958.208h-52.2752c-8.4992 0-15.36-6.8608-15.36-15.36V790.528c0-8.4992 6.8608-15.36 15.36-15.36h52.2752c8.4992 0 15.36 6.8608 15.36 15.36v152.32c0 8.4992-6.912 15.36-15.36 15.36z m-36.9664-30.72h21.5552V805.888h-21.5552v121.6z" fill="#333333" p-id="1416"></path></svg>