<?xml version="1.0" encoding="utf-8"?>
<!-- Generator: Adobe Illustrator 21.0.0, SVG Export Plug-In . SVG Version: 6.00 Build 0)  -->
<svg version="1.1" id="图层_1" xmlns="http://www.w3.org/2000/svg" xmlns:xlink="http://www.w3.org/1999/xlink" x="0px" y="0px"
	 viewBox="0 0 20 20" style="enable-background:new 0 0 20 20;" xml:space="preserve">
<style type="text/css">
	.st0{fill:#95A5B9;}
	.st1{fill:none;}
</style>
<g>
	<path class="st0" d="M10.7,13.9L10.7,13.9c-0.4,0.4-1,0.4-1.4,0L5.1,9.7c-0.4-0.4-0.4-1,0-1.4l0,0c0.4-0.4,1-0.4,1.4,0l4.2,4.2
		C11.1,12.9,11.1,13.6,10.7,13.9z"/>
	<path class="st0" d="M14.9,8.3L14.9,8.3c0.4,0.4,0.4,1,0,1.4l-4.2,4.2c-0.4,0.4-1,0.4-1.4,0l0,0c-0.4-0.4-0.4-1,0-1.4l4.2-4.2
		C13.9,7.9,14.6,7.9,14.9,8.3z"/>
</g>
<rect class="st1" width="20" height="20"/>
</svg>
