<?xml version="1.0" standalone="no"?><!DOCTYPE svg PUBLIC "-//W3C//DTD SVG 1.1//EN" "http://www.w3.org/Graphics/SVG/1.1/DTD/svg11.dtd"><svg t="1665066824695" class="icon" viewBox="0 0 1024 1024" version="1.1" xmlns="http://www.w3.org/2000/svg" p-id="4111" xmlns:xlink="http://www.w3.org/1999/xlink" width="128" height="128"><path d="M227.072 647.8336m-159.1808 0a159.1808 159.1808 0 1 0 318.3616 0 159.1808 159.1808 0 1 0-318.3616 0Z" fill="#BC9BE0" p-id="4112"></path><path d="M832.6144 647.8336m-159.1808 0a159.1808 159.1808 0 1 0 318.3616 0 159.1808 159.1808 0 1 0-318.3616 0Z" fill="#BC9BE0" p-id="4113"></path><path d="M725.8112 350.0032h-135.2704a14.7456 14.7456 0 0 1-14.7456-14.7456c0-6.7072 4.5568-12.5952 11.0592-14.2848l139.6224-31.0784c7.1168-1.8432 13.6704 4.5568 11.9808 11.7248l-12.6464 48.384z" fill="#EDC951" p-id="4114"></path><path d="M818.7392 443.904c-38.5024 0-74.3424 11.5712-104.2432 31.3856l-49.6128-67.3792 16.3328-42.5472h44.5952c7.0144 0 13.1072-4.7104 14.848-11.4688l12.6976-48.7424c2.048-8.6528-0.512-17.5104-6.8608-23.7056a24.9344 24.9344 0 0 0-23.552-6.4512l-139.4176 31.0272c-0.1536 0.0512-0.3584 0.1024-0.512 0.1024-13.2608 3.4304-22.528 15.4112-22.528 29.1328a30.1568 30.1568 0 0 0 30.1056 30.1056h57.7536l-10.9568 28.5696-269.7216-24.064 11.4176-28.7744c4.5056-11.3664 3.1232-24.1664-3.7376-34.2528a36.79232 36.79232 0 0 0-30.464-16.128c-13.312 0-24.1152-10.8032-24.1152-24.1152s10.8032-24.1152 24.1152-24.1152h91.4432c8.4992 0 15.36-6.8608 15.36-15.36s-6.8608-15.36-15.36-15.36H344.832c-30.208 0-54.8352 24.576-54.8352 54.8352s24.576 54.8352 54.8352 54.8352c2.816 0 4.352 1.6896 5.0688 2.6624 0.6656 0.9728 1.6384 3.072 0.6144 5.6832l-18.9952 47.7696-35.7888 85.7088a187.86304 187.86304 0 0 0-83.3024-19.3536c-104.3456 0-189.2352 84.8896-189.2352 189.2352 0 104.3456 84.8896 189.2352 189.2352 189.2352 104.3456 0 189.2352-84.8896 189.2352-189.2352 0-63.3856-31.3344-119.5008-79.3088-153.856l5.2224-12.544 218.624 187.7504c2.7648 2.4064 6.3488 3.6864 9.984 3.6864h75.008c12.288 92.5184 91.6992 164.1472 187.4944 164.1472 104.3456 0 189.2352-84.8896 189.2352-189.2352 0-104.2944-84.8384-189.184-189.184-189.184z m-97.536-137.0624l-7.2704 27.8528h-117.7088l124.9792-27.8528z m-350.3104 326.2976c0 87.3984-71.1168 158.5152-158.5152 158.5152s-158.5152-71.1168-158.5152-158.5152S124.9792 474.624 212.3776 474.624c25.7024 0 49.9712 6.1952 71.424 17.1008l-43.3152 103.7312-36.7616 24.9856c-7.0144 4.7616-8.8064 14.336-4.0448 21.3504 4.7616 7.0144 14.336 8.8576 21.3504 4.0448l40.5504-27.5456c2.4576-1.6896 4.4032-4.0448 5.5296-6.7584l43.008-103.0144c36.9664 29.0304 60.7744 74.0864 60.7744 124.6208z m319.4368-138.8032c-36.0448 33.3824-59.136 80.5888-60.672 133.1712h-48.9472l71.1168-185.4464 38.5024 52.2752z m18.3296 24.8832l79.6672 108.2368h-128c1.536-42.3936 19.7632-80.5888 48.3328-108.2368zM355.584 399.6672l270.336 24.1152-74.5984 194.6112-211.3024-181.4528 15.5648-37.2736z m463.1552 391.9872c-78.848 0-144.4352-57.9072-156.5184-133.4272h156.5184c5.7856 0 11.1104-3.2768 13.7216-8.448 2.6112-5.1712 2.0992-11.3664-1.3312-16.0256l-98.3552-133.632a157.55776 157.55776 0 0 1 86.016-25.4464c87.3984 0 158.5152 71.1168 158.5152 158.5152-0.1024 87.3472-71.168 158.464-158.5664 158.464z" fill="#333333" p-id="4115"></path></svg>