<?xml version="1.0" standalone="no"?><!DOCTYPE svg PUBLIC "-//W3C//DTD SVG 1.1//EN" "http://www.w3.org/Graphics/SVG/1.1/DTD/svg11.dtd"><svg t="1665066856841" class="icon" viewBox="0 0 1024 1024" version="1.1" xmlns="http://www.w3.org/2000/svg" p-id="4470" xmlns:xlink="http://www.w3.org/1999/xlink" width="128" height="128"><path d="M784.9472 426.752H307.0976c-115.7632 0-209.6128 87.3984-209.6128 195.2256v55.04c0 26.9312 23.4496 48.7936 52.4288 48.7936h16.0256c-0.8704-5.3248-1.4336-10.752-1.4336-16.2816 0-54.6304 44.288-98.8672 98.8672-98.8672s98.8672 44.288 98.8672 98.8672c0 5.5808-0.5632 11.008-1.4336 16.2816h286.9248c-0.1024-1.792-0.256-3.584-0.256-5.4272 0-57.4976 46.592-104.0896 104.0896-104.0896s104.0896 46.592 104.0896 104.0896c0 1.8432-0.2048 3.6352-0.256 5.4272h86.9888c28.928 0 52.4288-21.8624 52.4288-48.7936v-55.04c-0.2048-107.8272-94.0544-195.2256-209.8688-195.2256z" fill="#FCEF7F" p-id="4471"></path><path d="M580.1472 249.1392H457.1136c-71.0656 0-128.6144 57.6-128.6144 128.6144v10.9568h380.3136v-10.9568c0-71.0144-57.6-128.6144-128.6656-128.6144z" fill="#83DEFB" p-id="4472"></path><path d="M279.6032 725.8112m-86.3744 0a86.3744 86.3744 0 1 0 172.7488 0 86.3744 86.3744 0 1 0-172.7488 0Z" fill="#FF917B" p-id="4473"></path><path d="M767.6928 725.8112m-86.3744 0a86.3744 86.3744 0 1 0 172.7488 0 86.3744 86.3744 0 1 0-172.7488 0Z" fill="#FF917B" p-id="4474"></path><path d="M261.888 760.9344c-25.7024 0-46.592-20.8896-46.592-46.592s20.8896-46.592 46.592-46.592 46.592 20.8896 46.592 46.592-20.8896 46.592-46.592 46.592z m0-62.4128c-8.7552 0-15.872 7.1168-15.872 15.872 0 8.7552 7.1168 15.872 15.872 15.872 8.7552 0 15.872-7.1168 15.872-15.872 0-8.7552-7.1168-15.872-15.872-15.872zM749.2608 760.9344c-25.7024 0-46.592-20.8896-46.592-46.592s20.8896-46.592 46.592-46.592 46.592 20.8896 46.592 46.592-20.9408 46.592-46.592 46.592z m0-62.4128c-8.7552 0-15.872 7.1168-15.872 15.872 0 8.7552 7.1168 15.872 15.872 15.872 8.7552 0 15.872-7.1168 15.872-15.872 0-8.7552-7.1168-15.872-15.872-15.872z" fill="#333333" p-id="4475"></path><path d="M746.496 365.9776c-2.8672-95.1808-81.152-171.7248-176.9984-171.7248h-120.832c-95.9488 0-174.2336 76.6464-176.9984 171.9296-132.8128 4.1984-239.5136 113.4592-239.5136 247.2448v46.592c0 38.4512 31.2832 69.7344 69.7344 69.7344h45.824c7.5264 56.32 55.8592 99.8912 114.2272 99.8912 58.368 0 106.7008-43.5712 114.2272-99.8912h258.9184c7.5264 56.32 55.8592 99.8912 114.2272 99.8912 58.368 0 106.7008-43.5712 114.2272-99.8912h60.1088c38.4512 0 69.7344-31.2832 69.7344-69.7344v-46.592C993.28 477.184 882.6368 366.336 746.496 365.9776z m-30.6688 0h-194.4576V224.9728h48.128c78.9504 0 143.4624 62.7712 146.3296 141.0048zM448.6656 224.9728h41.984v141.0048H302.336c2.8672-78.2336 67.3792-141.0048 146.3296-141.0048z m-186.7776 573.952c-46.6432 0-84.5312-37.9392-84.5312-84.5312 0-46.6432 37.9392-84.5312 84.5312-84.5312 46.6432 0 84.5312 37.9392 84.5312 84.5312 0.0512 46.592-37.888 84.5312-84.5312 84.5312z m487.3728 0c-46.6432 0-84.5312-37.9392-84.5312-84.5312 0-46.6432 37.9392-84.5312 84.5312-84.5312 46.6432 0 84.5312 37.9392 84.5312 84.5312 0 46.592-37.9392 84.5312-84.5312 84.5312zM962.56 660.0192c0 21.504-17.5104 39.0144-39.0144 39.0144h-60.1088c-7.5264-56.32-55.8592-99.8912-114.2272-99.8912-58.368 0-106.7008 43.5712-114.2272 99.8912H376.1152c-7.5264-56.32-55.8592-99.8912-114.2272-99.8912-58.368 0-106.7008 43.5712-114.2272 99.8912h-45.824c-21.504 0-39.0144-17.5104-39.0144-39.0144v-46.592c0-119.5008 97.2288-216.7296 216.7296-216.7296h466.2784c119.5008 0 216.7296 97.2288 216.7296 216.7296v46.592z" fill="#333333" p-id="4476"></path><path d="M322.048 514.4064H209.5616c-17.4592 0-31.6928-14.2336-31.6928-31.6928v-17.7152c0-17.4592 14.2336-31.6928 31.6928-31.6928H322.048c17.4592 0 31.6928 14.2336 31.6928 31.6928v17.7152c0 17.4592-14.2336 31.6928-31.6928 31.6928z m-112.4864-50.432a0.9728 0.9728 0 0 0-0.9728 0.9728v17.7152c0 0.5632 0.4608 0.9728 0.9728 0.9728H322.048c0.5632 0 0.9728-0.4608 0.9728-0.9728v-17.7152a0.9728 0.9728 0 0 0-0.9728-0.9728H209.5616zM789.5552 520.6016h-30.1568c-17.4592 0-31.6928-14.2336-31.6928-31.6928V458.752c0-17.4592 14.2336-31.6928 31.6928-31.6928h30.1568c17.4592 0 31.6928 14.2336 31.6928 31.6928v30.1568c0 17.5104-14.2336 31.6928-31.6928 31.6928z m-30.208-62.8224a0.9728 0.9728 0 0 0-0.9728 0.9728v30.1568c0 0.5632 0.4608 0.9728 0.9728 0.9728h30.1568c0.5632 0 0.9728-0.4608 0.9728-0.9728V458.752a0.9728 0.9728 0 0 0-0.9728-0.9728h-30.1568z" fill="#333333" p-id="4477"></path></svg>