<?xml version="1.0" standalone="no"?><!DOCTYPE svg PUBLIC "-//W3C//DTD SVG 1.1//EN" "http://www.w3.org/Graphics/SVG/1.1/DTD/svg11.dtd"><svg t="1665066844132" class="icon" viewBox="0 0 1024 1024" version="1.1" xmlns="http://www.w3.org/2000/svg" p-id="4288" xmlns:xlink="http://www.w3.org/1999/xlink" width="128" height="128"><path d="M434.9952 204.4416a86.4256 84.8384 0 1 0 172.8512 0 86.4256 84.8384 0 1 0-172.8512 0Z" fill="#8B71B5" p-id="4289"></path><path d="M593.3568 319.3344c-17.5616 15.8208-40.8064 25.5488-66.304 25.5488-25.5488 0-48.7424-9.728-66.304-25.5488-69.5296 13.1584-122.112 74.1376-122.112 147.5072v330.9056c0 21.8624 17.7664 39.6288 39.6288 39.6288h59.6992v-5.3248c0-38.5536 31.232-69.7856 69.7856-69.7856s85.1456 31.232 85.1456 69.7856v5.3248H675.84c21.8624 0 39.6288-17.7664 39.6288-39.6288V466.8416c0-73.3184-52.5824-134.3488-122.112-147.5072z m43.2128 365.9776c0 11.264-9.1648 20.4288-20.4288 20.4288H437.9136c-11.264 0-46.0288-9.1648-46.0288-20.4288V474.6752c0-29.952 10.4448-91.136 79.7696-90.0096h110.6944c29.952 0 54.1696 60.1088 54.1696 90.0096v210.6368z" fill="#EDC951" p-id="4290"></path><path d="M510.3616 242.9952c-27.392 0-49.7152-22.3232-49.7152-49.7152s22.3232-49.7152 49.7152-49.7152 49.7152 22.3232 49.7152 49.7152-22.3232 49.7152-49.7152 49.7152z m0-68.7104c-10.496 0-18.9952 8.4992-18.9952 18.9952s8.4992 18.9952 18.9952 18.9952 18.9952-8.4992 18.9952-18.9952-8.5504-18.9952-18.9952-18.9952z" fill="#333333" p-id="4291"></path><path d="M407.9616 214.272c0-7.7312 1.28-15.1552 3.6352-22.1696 3.84-11.4176-6.656-22.528-18.432-19.8656L290.816 195.4816c-15.1552 3.4304-25.7024 15.4624-25.7024 29.184v15.7696c0 16.64 15.36 30.1568 34.304 30.1568h135.5776c-16.6912-14.2848-27.0336-34.2016-27.0336-56.32zM766.4128 204.3392l-95.744-24.9344c-10.0352-2.6112-19.5072 6.144-17.4592 16.3328 1.6896 8.3456 2.048 17.2032 2.048 25.2416 0 19.456-9.8304 37.0176-25.6512 49.6128h128.6656c17.9712 0 32.5632-11.8784 32.5632-26.5728v-13.9264c-0.0512-12.1344-10.0864-22.7328-24.4224-25.7536z" fill="#FF917B" p-id="4292"></path><path d="M136.7552 193.28h52.5312v52.5312H136.7552zM887.0912 193.28h52.5312v52.5312h-52.5312z" fill="#8B71B5" p-id="4293"></path><path d="M189.2864 261.1712h-107.008c-8.4992 0-15.36-6.8608-15.36-15.36V193.28c0-8.4992 6.8608-15.36 15.36-15.36h107.008c8.4992 0 15.36 6.8608 15.36 15.36v52.5312c0 8.4992-6.912 15.36-15.36 15.36z m-91.6992-30.72h76.288v-21.8112h-76.288v21.8112zM939.6224 261.1712h-107.008c-8.4992 0-15.36-6.8608-15.36-15.36V193.28c0-8.4992 6.8608-15.36 15.36-15.36h107.008c8.4992 0 15.36 6.8608 15.36 15.36v52.5312c0 8.4992-6.8608 15.36-15.36 15.36z m-91.6992-30.72h76.288v-21.8112h-76.288v21.8112z" fill="#333333" p-id="4294"></path><path d="M629.6064 674.816c0 10.5984-8.3456 19.2-18.5856 19.2H448.6656c-10.2912 0-18.5856-8.6016-18.5856-19.2V461.9776c0-28.16 6.7584-36.4544 33.9968-36.4544h116.1728c27.2384 0 49.3568 22.8352 49.3568 50.9952v198.2976z" fill="#E56A77" p-id="4295"></path><path d="M607.3856 709.4272h-194.048c-20.736 0-37.5808-16.8448-37.5808-37.5808V442.5216c0-41.0112 33.3312-74.3424 74.3424-74.3424h120.5248c41.0112 0 74.3424 33.3312 74.3424 74.3424v229.2736c0 20.736-16.8448 37.632-37.5808 37.632zM450.0992 398.8992c-24.064 0-43.6224 19.5584-43.6224 43.6224v229.2736c0 3.7888 3.072 6.8608 6.8608 6.8608h194.048c3.7888 0 6.8608-3.072 6.8608-6.8608V442.5216c0-24.064-19.5584-43.6224-43.6224-43.6224H450.0992z" fill="#333333" p-id="4296"></path><path d="M516.3008 957.7984c-30.6688 0-55.5008-24.832-55.5008-55.5008v-62.208c0-30.6688 24.832-55.5008 55.5008-55.5008s55.5008 24.832 55.5008 55.5008v62.208c0 30.6688-24.832 55.5008-55.5008 55.5008z" fill="#8B71B5" p-id="4297"></path><path d="M570.624 368.1792H450.0992c-41.0112 0-74.3424 33.3312-74.3424 74.3424v229.2736c0 20.736 16.8448 37.5808 37.5808 37.5808h194.048c20.736 0 37.5808-16.8448 37.5808-37.5808V442.5216c0-40.96-33.3824-74.3424-74.3424-74.3424z m43.6224 303.6672c0 3.7888-3.072 6.8608-6.8608 6.8608h-194.048c-3.7888 0-6.8608-3.072-6.8608-6.8608V442.5216c0-24.064 19.5584-43.6224 43.6224-43.6224h120.5248c24.064 0 43.6224 19.5584 43.6224 43.6224v229.3248z" fill="#333333" p-id="4298"></path><path d="M763.5968 152.5248l-161.5872-41.728c-22.5792-25.088-55.296-40.9088-91.648-40.9088s-69.0688 15.8208-91.648 40.9088l-161.5872 41.728a56.75008 56.75008 0 0 0-42.5472 54.9376v21.6576c0 31.2832 25.4464 56.7808 56.7808 56.7808h97.28c-47.9232 32.512-78.6944 87.3984-78.6944 148.1216v360.2432c0 32.256 26.2656 58.5216 58.5216 58.5216H414.72v29.0816c0 50.3808 40.96 91.3408 91.3408 91.3408s91.3408-40.96 91.3408-91.3408v-29.0816h74.9568c32.256 0 58.5216-26.2656 58.5216-58.5216V434.0224c0-60.8256-30.72-115.6608-78.6432-148.1216h97.1776c31.2832 0 56.7808-25.4464 56.7808-56.7808v-21.6576c-0.0512-25.856-17.5616-48.4352-42.5984-54.9376zM510.3616 100.608c31.8976 0 60.1088 16.2304 76.7488 40.8064 0.1024 0.1536 0.2048 0.3584 0.3072 0.512 1.4336 2.1504 2.7648 4.352 3.9936 6.6048 0.4608 0.8192 0.8704 1.6896 1.28 2.5088 0.8192 1.6384 1.6384 3.2256 2.3552 4.9152 0.512 1.1776 0.9728 2.304 1.4336 3.4816 0.5632 1.4336 1.0752 2.8672 1.5872 4.3008 0.4608 1.3312 0.8704 2.6112 1.2288 3.9424 0.4096 1.4336 0.768 2.8672 1.1264 4.3008 0.3072 1.3312 0.6144 2.6624 0.8704 3.9936 0.3072 1.6896 0.5632 3.3792 0.768 5.0688 0.1536 1.1264 0.3584 2.2528 0.4608 3.4304 0.256 2.8672 0.4608 5.7856 0.4608 8.7552 0 3.1744-0.1536 6.3488-0.4608 9.472 0 0.0512 0 0.1536-0.0512 0.2048-1.792 17.0496-8.2944 32.7168-18.0736 45.7216-0.9728 1.28-1.8432 2.56-2.8672 3.7888-0.6144 0.7168-1.28 1.3824-1.8944 2.048-1.4336 1.6384-2.8672 3.2256-4.4032 4.7616-1.1264 1.0752-2.304 2.0992-3.4304 3.1232-1.8432 1.6384-3.7376 3.1744-5.6832 4.6592-0.3584 0.256-0.7168 0.512-1.0752 0.8192a74.37824 74.37824 0 0 1-7.2704 4.8128c-1.9456 1.1776-3.9424 2.2528-5.9392 3.2768-0.6144 0.3072-1.1776 0.5632-1.792 0.8704-1.9456 0.9216-3.8912 1.792-5.888 2.56-0.768 0.3072-1.5872 0.5632-2.3552 0.8704-1.8432 0.6656-3.7376 1.3312-5.632 1.8944-1.024 0.3072-2.0992 0.5632-3.1232 0.8192-1.6896 0.4608-3.4304 0.8704-5.1712 1.2288-1.4848 0.3072-3.0208 0.4608-4.5056 0.6656-1.3824 0.2048-2.7136 0.4608-4.096 0.5632a85.05344 85.05344 0 0 1-17.7664 0c-1.3312-0.1536-2.6624-0.3584-4.0448-0.5632-1.4848-0.2048-2.9696-0.4096-4.4544-0.6656-1.6896-0.3072-3.3792-0.768-5.0688-1.1776-1.024-0.256-2.0992-0.512-3.1232-0.8192-1.8432-0.5632-3.6864-1.1776-5.5296-1.792-0.768-0.256-1.5872-0.5632-2.3552-0.8704-1.9456-0.768-3.84-1.5872-5.7344-2.4576-0.6144-0.3072-1.2288-0.5632-1.792-0.8704-1.9968-0.9728-3.9424-2.048-5.8368-3.1232-0.4608-0.256-0.9216-0.5632-1.3824-0.8192-1.9968-1.2288-3.9424-2.5088-5.8368-3.84-0.3072-0.2048-0.6144-0.4608-0.9216-0.7168-1.9968-1.4848-3.9424-3.0208-5.7856-4.6592-1.4336-1.2288-2.816-2.4576-4.1472-3.7888-1.536-1.536-2.9696-3.1232-4.4032-4.7616-0.6144-0.7168-1.28-1.3312-1.8944-2.048-1.024-1.2288-1.8944-2.5088-2.8672-3.7888-9.7792-13.056-16.2816-28.672-18.0736-45.7216 0-0.0512 0-0.1536-0.0512-0.2048-0.3072-3.1232-0.4608-6.2464-0.4608-9.472 0-2.9696 0.1536-5.8368 0.4608-8.704 0.1024-1.1264 0.3072-2.2528 0.4608-3.4304 0.2048-1.6896 0.4608-3.3792 0.768-5.0688 0.256-1.3312 0.5632-2.6624 0.8704-3.9936 0.3584-1.4336 0.7168-2.9184 1.1264-4.352 0.3584-1.3312 0.8192-2.6624 1.2288-3.9424 0.512-1.4336 1.024-2.8672 1.5872-4.3008 0.4608-1.1776 0.9216-2.3552 1.4336-3.4816 0.7168-1.6896 1.536-3.2768 2.3552-4.9152 0.4096-0.8192 0.8192-1.6896 1.28-2.5088 1.2288-2.2528 2.56-4.4544 3.9936-6.6048 0.1024-0.1536 0.2048-0.3584 0.3072-0.512 16.64-24.576 44.8512-40.8064 76.7488-40.8064zM245.248 229.1712v-21.6576c0-11.8784 8.0384-22.2208 19.5072-25.1904l130.6112-33.7408c-0.0512 0.1024-0.0512 0.2048-0.1024 0.3584-1.28 3.328-2.4576 6.7584-3.4304 10.1888l-0.1536 0.512c-0.9728 3.4816-1.8432 7.0144-2.5088 10.5984-0.0512 0.2048-0.0512 0.3584-0.1024 0.5632-0.6656 3.5328-1.1776 7.1168-1.536 10.752 0 0.256-0.0512 0.512-0.0512 0.7168-0.3072 3.6352-0.512 7.2704-0.512 10.9568 0 2.5088 0.1024 4.9664 0.256 7.424 0.0512 0.8192 0.1024 1.6896 0.2048 2.5088 0.1024 1.5872 0.3072 3.1744 0.4608 4.7616 0.1024 1.024 0.256 1.9968 0.3584 2.9696 0.2048 1.4336 0.4608 2.816 0.7168 4.1984 0.3584 2.1504 0.8192 4.2496 1.3312 6.3488a115.64032 115.64032 0 0 0 1.9456 7.2192c0.2048 0.6656 0.4096 1.28 0.6144 1.9456 0.512 1.5872 1.024 3.1744 1.5872 4.7616 0.1024 0.3072 0.2048 0.5632 0.3072 0.8704 1.9456 5.2224 4.2496 10.24 6.8608 15.1552 0.2048 0.3584 0.3584 0.7168 0.5632 1.024 0.512 0.9216 0.9728 1.8432 1.4848 2.7136H271.3088c-14.3872 0.1024-26.0608-11.5712-26.0608-25.9584z m321.4336 652.6976c0 33.4336-27.1872 60.6208-60.6208 60.6208S445.44 915.2512 445.44 881.8688v-48.0768c0-28.928 19.7632-54.0672 46.0288-60.928 0.0512 0 0.1024 0 0.1024-0.0512 1.4848-0.3584 2.9696-0.6656 4.5056-0.9216 0.768-0.1024 1.536-0.256 2.304-0.3584 1.024-0.1536 2.0992-0.256 3.1232-0.3072 1.0752-0.1024 2.1504-0.1536 3.2256-0.1536h2.6624c1.3312 0.0512 2.7136 0.1024 4.0448 0.2048l1.6896 0.1536c1.5872 0.2048 3.1232 0.4096 4.6592 0.7168 0.3584 0.0512 0.6656 0.1536 1.024 0.2048a55.37792 55.37792 0 0 1 5.632 1.4848c1.6896 0.5632 3.3792 1.1776 5.0176 1.8432 0.1536 0.0512 0.3584 0.1536 0.512 0.2048 1.6384 0.7168 3.2256 1.4848 4.7616 2.304 0.2048 0.1024 0.4608 0.256 0.6656 0.3584 1.4336 0.8192 2.8672 1.6384 4.2496 2.56l1.024 0.7168c1.2288 0.8704 2.4576 1.7408 3.6352 2.7136 0.4608 0.3584 0.8704 0.768 1.28 1.1264 1.0752 0.9216 2.0992 1.8432 3.1232 2.816 0.3584 0.3584 0.7168 0.768 1.0752 1.1264 1.024 1.0752 2.0992 2.2016 3.0208 3.328 0.1024 0.1024 0.2048 0.256 0.3072 0.3584a60.416 60.416 0 0 1 13.6192 38.2464V881.8688z m133.4272-447.8464v360.2432c0 15.3088-12.4416 27.8016-27.8016 27.8016h-75.4688c-0.3072-2.9696-0.768-5.888-1.3824-8.7552 0-0.1024-0.0512-0.1536-0.0512-0.256-0.5632-2.8672-1.3312-5.632-2.1504-8.448l-0.1536-0.4608c-0.8192-2.6624-1.792-5.3248-2.9184-7.936-0.0512-0.1536-0.1024-0.256-0.1536-0.4096-1.0752-2.56-2.304-5.12-3.6352-7.5776-0.0512-0.1024-0.1536-0.256-0.2048-0.3584-1.3312-2.4064-2.7648-4.7616-4.3008-7.0144l-0.3584-0.512a91.53024 91.53024 0 0 0-5.376-7.1168c-1.5872-1.8944-3.2768-3.7376-5.0176-5.5296-0.3072-0.3072-0.5632-0.6144-0.8704-0.9216-0.4096-0.4096-0.8192-0.8704-1.2288-1.28-1.1264-1.0752-2.3552-2.048-3.5328-3.072-0.6656-0.5632-1.3312-1.1776-1.9968-1.7408-1.7408-1.3824-3.4816-2.7136-5.2736-3.9424-0.6144-0.4096-1.1776-0.8192-1.792-1.2288-1.9456-1.28-3.9424-2.5088-5.9904-3.6352-0.512-0.3072-1.0752-0.6144-1.5872-0.8704-2.0992-1.1264-4.1984-2.1504-6.4-3.072-0.5632-0.256-1.1776-0.512-1.7408-0.768-2.0992-0.8704-4.2496-1.6384-6.4-2.3552-0.768-0.256-1.4848-0.512-2.2528-0.7168-1.9968-0.6144-4.0448-1.1264-6.0928-1.5872-1.024-0.2048-2.048-0.4608-3.072-0.6144a97.52064 97.52064 0 0 0-9.472-1.28c-1.6896-0.1536-3.4304-0.2048-5.12-0.256-0.768 0-1.536-0.1024-2.304-0.1024-0.7168 0-1.3824 0.1024-2.0992 0.1024-0.768 0-1.536-0.0512-2.304 0-0.9728 0.0512-1.8944 0.2048-2.8672 0.256l-3.5328 0.3072c-1.7408 0.2048-3.4816 0.512-5.2224 0.8192-1.1776 0.2048-2.3552 0.4096-3.5328 0.6656-1.536 0.3584-3.0208 0.768-4.5568 1.1776-1.3312 0.3584-2.7136 0.7168-3.9936 1.1264-0.8704 0.3072-1.7408 0.6144-2.6112 0.9728-32.4096 11.6224-56.4224 40.96-60.1088 76.3392H348.3648c-15.3088 0-27.8016-12.4416-27.8016-27.8016V434.0224c0-68.5056 47.36-128.1024 113.408-143.9744 15.872 12.544 34.816 21.248 55.6032 24.7808 0.1024 0 0.256 0.0512 0.3584 0.0512 3.1232 0.512 6.2976 0.9216 9.5232 1.2288 0.4608 0.0512 0.9216 0.0512 1.3824 0.1024 3.1232 0.256 6.2976 0.4096 9.5232 0.4096 3.1744 0 6.3488-0.1536 9.472-0.4096 0.512-0.0512 0.9728-0.0512 1.4848-0.1024 3.1744-0.256 6.2976-0.6656 9.3696-1.1776 0.2048-0.0512 0.4096-0.0512 0.6144-0.1024 20.6848-3.5328 39.6288-12.288 55.4496-24.7808 66.0992 15.872 113.3568 75.3152 113.3568 143.9744z m75.3152-204.8512c0 14.336-11.6736 26.0608-26.0608 26.0608h-132.3008c0.512-0.8704 0.9728-1.8432 1.4848-2.7136 0.2048-0.3584 0.3584-0.6656 0.5632-1.024 2.6112-4.9152 4.9152-9.984 6.8608-15.1552 0.1024-0.3072 0.2048-0.5632 0.3072-0.8704 0.5632-1.5872 1.1264-3.1744 1.5872-4.7616 0.2048-0.6656 0.4096-1.28 0.6144-1.9456 0.4608-1.4848 0.8704-2.9696 1.28-4.5056 0.256-0.9216 0.4096-1.8432 0.6656-2.7136 0.512-2.0992 0.9216-4.1984 1.3312-6.3488 0.256-1.3824 0.512-2.7648 0.7168-4.1984 0.1536-0.9728 0.256-1.9968 0.3584-3.0208 0.2048-1.5872 0.3584-3.1744 0.4608-4.7616 0.0512-0.8192 0.1536-1.6896 0.2048-2.5088 0.1536-2.4576 0.256-4.9152 0.256-7.424 0-3.6864-0.2048-7.3728-0.512-10.9568 0-0.256-0.0512-0.512-0.0512-0.7168-0.3584-3.6352-0.8704-7.2192-1.536-10.752-0.0512-0.2048-0.0512-0.4096-0.1024-0.6144-0.6656-3.584-1.536-7.1168-2.5088-10.5984l-0.1536-0.512c-1.024-3.4816-2.1504-6.8608-3.4304-10.1888-0.0512-0.1024-0.0512-0.2048-0.1024-0.3584l130.6112 33.7408c11.52 2.9696 19.5072 13.312 19.5072 25.1904v21.6576z" fill="#333333" p-id="4299"></path></svg>