<?xml version="1.0" standalone="no"?><!DOCTYPE svg PUBLIC "-//W3C//DTD SVG 1.1//EN" "http://www.w3.org/Graphics/SVG/1.1/DTD/svg11.dtd"><svg t="1664862428453" class="icon" viewBox="0 0 1024 1024" version="1.1" xmlns="http://www.w3.org/2000/svg" p-id="1741" xmlns:xlink="http://www.w3.org/1999/xlink" width="200" height="200"><path d="M661.0944 266.752c-0.7168-67.7888-8.1408-110.848-21.8624-112.384h-219.136c-18.432 0-28.2624 43.3152-29.7472 112.384h270.7456zM580.7616 835.4816c28.0576-103.2704 48.2304-215.7568 60.928-319.0272H412.2112c13.6704 102.8608 35.3792 215.1424 64.768 319.0272h103.7824z" fill="#84DDFD" p-id="1742"></path><path d="M866.304 301.6192H201.984c-59.3408 0-107.4176 48.0768-107.4176 107.4176s48.0768 107.4176 107.4176 107.4176H866.304c59.3408 0 107.4176-48.0768 107.4176-107.4176s-48.128-107.4176-107.4176-107.4176zM172.3392 455.6288c-35.3792 0-64.0512-28.672-64.0512-64.0512s28.672-64.0512 64.0512-64.0512 64.0512 28.672 64.0512 64.0512-28.672 64.0512-64.0512 64.0512z m668.1088 0c-35.3792 0-64.0512-28.672-64.0512-64.0512s28.672-64.0512 64.0512-64.0512 64.0512 28.672 64.0512 64.0512-28.672 64.0512-64.0512 64.0512z" fill="#F5CD40" p-id="1743"></path><path d="M857.2928 403.3536m-52.3264 0a52.3264 52.3264 0 1 0 104.6528 0 52.3264 52.3264 0 1 0-104.6528 0Z" fill="#BC9BE0" p-id="1744"></path><path d="M188.4672 403.3536m-52.3264 0a52.3264 52.3264 0 1 0 104.6528 0 52.3264 52.3264 0 1 0-104.6528 0Z" fill="#BC9BE0" p-id="1745"></path><path d="M172.3392 470.9888c-43.776 0-79.4112-35.6352-79.4112-79.4112s35.6352-79.4112 79.4112-79.4112 79.4112 35.6352 79.4112 79.4112-35.584 79.4112-79.4112 79.4112z m0-128.1024c-26.8288 0-48.6912 21.8624-48.6912 48.6912s21.8624 48.6912 48.6912 48.6912 48.6912-21.8624 48.6912-48.6912-21.8112-48.6912-48.6912-48.6912zM840.448 470.9888c-43.776 0-79.4112-35.6352-79.4112-79.4112s35.6352-79.4112 79.4112-79.4112 79.4112 35.6352 79.4112 79.4112-35.6352 79.4112-79.4112 79.4112z m0-128.1024c-26.8288 0-48.6912 21.8624-48.6912 48.6912s21.8624 48.6912 48.6912 48.6912 48.6912-21.8624 48.6912-48.6912-21.8624-48.6912-48.6912-48.6912zM671.744 442.7776c-28.2112 0-51.2-22.9376-51.2-51.2s22.9376-51.2 51.2-51.2 51.2 22.9376 51.2 51.2-22.9888 51.2-51.2 51.2z m0-71.6288c-11.264 0-20.48 9.1648-20.48 20.48s9.1648 20.48 20.48 20.48 20.48-9.1648 20.48-20.48-9.1648-20.48-20.48-20.48zM340.1216 442.7776c-28.2112 0-51.2-22.9376-51.2-51.2s22.9376-51.2 51.2-51.2 51.2 22.9376 51.2 51.2-22.9888 51.2-51.2 51.2z m0-71.6288c-11.264 0-20.48 9.1648-20.48 20.48s9.1648 20.48 20.48 20.48 20.48-9.1648 20.48-20.48-9.216-20.48-20.48-20.48z" fill="#333333" p-id="1746"></path><path d="M531.0976 954.9312l-15.36 11.8784c-2.8672 2.2016-6.912 2.2016-9.728-0.0512l-14.8992-11.8272a23.0656 23.0656 0 0 1-8.704-18.0224v-75.776c0-1.3312 0.3072-2.6112 0.9728-3.7376l20.8896-38.6048c2.9696-5.5296 10.9056-5.5296 13.8752 0l20.8896 38.6048c0.6144 1.1776 0.9728 2.4576 0.9728 3.7376v75.6224c0 7.1168-3.2768 13.824-8.9088 18.176z" fill="#BC9BE0" p-id="1747"></path><path d="M657.5616 861.7472h-86.8352v75.008l77.4144-2.0992c24.8832 0 43.2128-4.4032 54.4768-22.8864v-4.9152c0.0512-24.8832-20.1216-45.1072-45.056-45.1072zM482.4576 861.1328c0-1.3312 0.3072-2.6112 0.9728-3.7376l-6.2464 4.3008-107.4688-0.256c-5.2736 0-19.9168 3.9424-19.9168 19.1488v10.3424c0 24.8832 20.1728 45.1072 45.1072 45.1072h87.552v-74.9056zM484.3008 132.3008s-61.4912-36.608-144.9472-24.7296c-26.0096 4.3008-21.4528 53.5552 138.7008 47.104v-8.2944s0.512-8.8576 6.2464-14.08zM574.8736 133.888s58.0608-36.5056 140.1344-31.8464c25.6 1.9968 24.576 47.3088-131.6864 53.1968l-0.5632-7.5264s-1.9456-9.5232-7.8848-13.824z" fill="#E56A77" p-id="1748"></path><path d="M848.8448 251.392h-172.6976c-1.3312-45.4144-6.144-72.704-12.6976-88.9344 51.8656-11.7248 74.9056-34.56 77.8752-57.4464 2.3552-17.92-8.6528-33.5872-26.624-37.376-82.688-14.9504-147.8656 16.9472-173.7216 32.5632a45.95712 45.95712 0 0 0-26.2656-8.2432h-7.1168c-9.728 0-18.7392 3.0208-26.1632 8.1408-25.9072-15.616-91.0848-47.36-174.0288-32.4096-17.5104 3.6864-28.5184 19.3536-26.1632 37.2736 2.9184 22.272 24.832 44.544 73.984 56.5248-9.472 18.2784-15.0528 47.9232-16.9984 89.856H173.0048c-77.312 0-140.1856 62.8736-140.1856 140.1856s62.8736 140.1856 140.1856 140.1856h187.2384c16.1792 100.096 39.424 199.0656 67.6864 288.3072H364.1856c-33.3312 0-60.4672 27.136-60.4672 60.4672v10.3424c0 33.3312 27.136 60.4672 60.4672 60.4672h105.7792a37.73952 37.73952 0 0 0 11.6224 15.5648l14.8992 11.8272c4.2496 3.3792 9.3696 5.0688 14.4896 5.0688 5.0176 0 10.0352-1.6384 14.2336-4.9152l15.36-11.8784a38.49216 38.49216 0 0 0 11.9296-15.7184h105.1136c33.3312 0 60.4672-27.136 60.4672-60.4672v-10.3424c0-33.3312-27.136-60.4672-60.4672-60.4672h-66.304c26.5728-87.6544 48.384-186.624 63.6928-288.3072h193.8944c77.312 0 140.1856-62.8736 140.1856-140.1856S926.1568 251.392 848.8448 251.392z m-139.9808-153.6c1.4336 0.3072 2.3552 0.9728 2.048 3.2768-1.28 9.7792-23.9616 33.3312-102.7584 37.9904h-47.0528c0-0.1024-0.0512-0.256-0.0512-0.4096V138.24c0-4.5056-0.6656-8.8064-1.8944-12.9536 23.3984-13.5168 80.0768-40.0384 149.7088-27.4944z m-194.048 24.9344c2.3552 0 4.608 0.5632 6.6048 1.536l5.4272 6.1952c1.536 1.7408 2.6624 5.376 3.2768 8.5504h-37.4272c0.6144-3.072 1.7408-6.7584 3.2768-8.5504l5.5808-6.4512c1.8944-0.8192 3.9936-1.3312 6.1952-1.3312h7.0656zM311.808 101.0688c-0.3072-2.304 0.6144-2.9696 1.5872-3.1744 12.8512-2.304 25.2416-3.328 37.12-3.328 52.4288 0 93.696 19.5584 112.8448 30.6176-1.2288 4.1472-1.8944 8.4992-1.8944 13.056v0.768h-47.8208c-78.08-4.8128-100.5568-28.2112-101.8368-37.9392z m75.2128 68.6592h26.4192c9.5744 0.5632 19.7632 0.8704 30.5664 0.8704 10.4448 0 21.504-0.3072 33.1264-0.8704h68.5056c11.6224 0.5632 22.6816 0.8704 33.1264 0.8704 10.8032 0 20.9408-0.3072 30.5152-0.8704h23.3984c2.6624 4.1984 10.8544 21.76 12.7488 81.664H369.0496c3.6352-73.3184 18.0224-81.664 17.9712-81.664z m80.0768 750.9504h-102.912c-16.384 0-29.7472-13.3632-29.7472-29.7472v-10.3424c0-16.384 13.3632-29.7472 29.7472-29.7472H469.504c-0.1536 0.3584-0.3072 0.7168-0.4608 1.024-0.1536 0.3584-0.3072 0.7168-0.4608 1.1264-0.2048 0.5632-0.3584 1.1264-0.5632 1.6896-0.1024 0.3072-0.2048 0.6144-0.256 0.9216-0.1536 0.7168-0.3072 1.4336-0.4096 2.2016-0.0512 0.2048-0.0512 0.3584-0.1024 0.5632-0.1024 0.9216-0.2048 1.8944-0.2048 2.816v59.4944z m54.6304 22.1184l-10.7008 8.2944-10.2912-8.192c-1.8432-1.4848-2.9184-3.6352-2.9184-5.9904v-73.9328l6.6048-12.1856h13.6704l6.6048 12.1856v73.728c-0.0512 2.4064-1.1264 4.6592-2.9696 6.0928z m165.5808-62.2592V890.88c0 16.384-13.3632 29.7472-29.7472 29.7472h-102.1952v-59.5456c0-0.9216-0.0512-1.8432-0.1536-2.7648l-0.1536-0.9216a23.3984 23.3984 0 0 0-0.3584-1.8432l-0.3072-1.0752c-0.1536-0.512-0.3072-1.0752-0.512-1.5872-0.1536-0.4096-0.3072-0.768-0.4608-1.1264s-0.256-0.6656-0.4096-1.024h104.6016c16.3328 0.1024 29.696 13.4144 29.696 29.7984z m-128.1536-60.416h-22.784l-4.6592-8.6528a23.168 23.168 0 0 0-20.48-12.1856c-8.5504 0-16.384 4.6592-20.4288 12.1856l-4.6592 8.6528h-25.9072c-28.7232-88.7808-52.3776-187.8528-68.864-288.3072h232.5504c-15.5648 102.0928-37.7856 201.1648-64.768 288.3072z m289.6896-319.0272h-675.84c-60.3648 0-109.4656-49.1008-109.4656-109.4656S112.64 282.112 173.0048 282.112h675.84c60.3648 0 109.4656 49.1008 109.4656 109.4656s-49.1008 109.5168-109.4656 109.5168z" fill="#333333" p-id="1749"></path></svg>