<?xml version="1.0" standalone="no"?><!DOCTYPE svg PUBLIC "-//W3C//DTD SVG 1.1//EN" "http://www.w3.org/Graphics/SVG/1.1/DTD/svg11.dtd"><svg t="1664862419366" class="icon" viewBox="0 0 1024 1024" version="1.1" xmlns="http://www.w3.org/2000/svg" p-id="1562" xmlns:xlink="http://www.w3.org/1999/xlink" width="200" height="200"><path d="M487.2192 479.4368l-0.1024 0.1024c0.0512-0.0512 0.1024-0.0512 0.1024-0.1024zM482.816 484.5568c0.2048-0.3072 0.4608-0.6144 0.7168-0.9216-0.256 0.3072-0.512 0.6144-0.7168 0.9216zM506.8288 469.8624h-0.0512zM484.864 481.9456zM476.2112 505.2928zM480.9728 487.424c0.256-0.4096 0.512-0.8192 0.7168-1.2288-0.2048 0.4096-0.4608 0.8192-0.7168 1.2288zM530.2784 474.5216c0.256 0.1536 0.4608 0.3072 0.7168 0.4608-0.256-0.2048-0.512-0.3072-0.7168-0.4608zM535.808 478.5664a4.61824 4.61824 0 0 1-0.512-0.4608c0.1536 0.1536 0.3584 0.3072 0.512 0.4608zM524.8512 471.8592c0.2048 0.0512 0.3584 0.1536 0.5632 0.2048-0.1536-0.0512-0.3584-0.1024-0.5632-0.2048zM543.1808 487.7312c-0.1024-0.2048-0.256-0.4096-0.3584-0.6144 0.1024 0.2048 0.256 0.4096 0.3584 0.6144zM547.2256 511.4368c0.0512-0.2048 0.0512-0.4608 0.1024-0.6656 0 0.2048-0.0512 0.4608-0.1024 0.6656zM545.792 493.4656l-0.3072-0.9216c0.0512 0.3072 0.2048 0.6144 0.3072 0.9216zM547.2768 499.456c-0.0512-0.256-0.0512-0.5632-0.1024-0.8192 0.0512 0.3072 0.1024 0.5632 0.1024 0.8192zM479.4368 490.4448c0.2048-0.512 0.4608-0.9728 0.7168-1.4336-0.256 0.4608-0.512 0.9216-0.7168 1.4336z" fill="#EDC951" p-id="1563"></path><path d="M530.1248 234.1888c-156.5696 0-283.5456 128.2048-283.5456 286.3616s126.9248 286.3616 283.5456 286.3616 283.5456-128.2048 283.5456-286.3616c-0.0512-158.1568-126.976-286.3616-283.5456-286.3616zM512 541.0816c-16.6912 0-30.6688-11.4176-34.6624-26.88l-112.64-112.64 43.008-43.008 105.216 105.216 153.3952-153.3952 43.008 43.008-163.3792 163.3792a35.87584 35.87584 0 0 1-33.9456 24.32z" fill="#EDC951" p-id="1564"></path><path d="M476.5696 510.1056c0-0.1536-0.0512-0.256-0.0512-0.4096 0 0.1024 0 0.256 0.0512 0.4096zM478.1568 493.6192c0.2048-0.5632 0.4096-1.1264 0.6144-1.6384-0.2048 0.512-0.4096 1.0752-0.6144 1.6384zM477.184 496.9984zM476.5184 500.6336c0.1024-0.768 0.2048-1.536 0.3584-2.304-0.1536 0.768-0.256 1.536-0.3584 2.304z" fill="#EDC951" p-id="1565"></path><path d="M530.6368 153.6C331.1616 153.6 169.472 317.3376 169.472 519.3216s161.6896 365.7216 361.1648 365.7216c199.4752 0 361.1648-163.7376 361.1648-365.7216S730.0608 153.6 530.6368 153.6z m0 656.1792c-158.4128 0-320.256-135.168-320.256-295.6288s137.3184-310.272 315.0848-310.272c158.4128 0 292.0448 154.9824 292.0448 315.392s-128.4608 290.5088-286.8736 290.5088z" fill="#FFB47A" p-id="1566"></path><path d="M512 822.272c-174.7968 0-316.9792-142.1824-316.9792-316.9792S337.2032 188.2624 512 188.2624s316.9792 142.1824 316.9792 316.9792S686.7968 822.272 512 822.272z m0-603.2896c-157.8496 0-286.2592 128.4096-286.2592 286.2592S354.1504 791.552 512 791.552s286.2592-128.4096 286.2592-286.2592S669.8496 218.9824 512 218.9824z" fill="#333333" p-id="1567"></path><path d="M301.824 831.3856c-0.3072 0.9728-59.8016 101.9392-59.8016 101.9392h44.7488l42.8032-86.272-27.7504-15.6672z" fill="#FFA750" p-id="1568"></path><path d="M721.2544 830.0032l51.6608 112.5376 53.2992-6.8096-76.1344-125.952z" fill="#FFA750" p-id="1569"></path><path d="M327.3216 168.96s-104.9088-65.1776-187.7504 24.5248c-23.04 26.4704-55.7056 105.3184 11.6224 165.0688 21.5552-47.4112 88.8832-147.456 176.128-189.5936z" fill="#EDC951" p-id="1570"></path><path d="M712.7552 173.8752s163.6352-89.2416 213.6064 84.3264c-2.8672 37.5296-31.3856 91.136-56.8832 101.4272-17.6128-48.4864-156.7232-185.7536-156.7232-185.7536z" fill="#EDC951" p-id="1571"></path><path d="M512 319.6928c-8.4992 0-15.36-6.8608-15.36-15.36V251.4944c0-8.4992 6.8608-15.36 15.36-15.36s15.36 6.8608 15.36 15.36v52.8384c0 8.4992-6.8608 15.36-15.36 15.36z" fill="#333333" p-id="1572"></path><path d="M512 773.9904c-8.4992 0-15.36-6.8608-15.36-15.36v-52.8384c0-8.4992 6.8608-15.36 15.36-15.36s15.36 6.8608 15.36 15.36v52.8384c0 8.4992-6.8608 15.36-15.36 15.36z" fill="#333333" p-id="1573"></path><path d="M765.5424 520.448H712.704c-8.4992 0-15.36-6.8608-15.36-15.36s6.8608-15.36 15.36-15.36h52.8384c8.4992 0 15.36 6.8608 15.36 15.36s-6.8608 15.36-15.36 15.36z" fill="#333333" p-id="1574"></path><path d="M311.2448 520.448H258.4064c-8.4992 0-15.36-6.8608-15.36-15.36s6.8608-15.36 15.36-15.36h52.8384c8.4992 0 15.36 6.8608 15.36 15.36s-6.8608 15.36-15.36 15.36z" fill="#333333" p-id="1575"></path><path d="M388.608 389.5808l88.832 88.7808 22.9376-20.1728-93.1328-91.648z" fill="#E56A77" p-id="1576"></path><path d="M534.4768 478.7712c6.0416 5.7856 9.6256 11.1616 8.2432 21.3504-0.5632 3.9936-0.6656 7.8848-1.8944 11.4688l163.3792-163.3792-21.248-21.248-153.6512 152.2176c1.6896-0.256 3.8912-1.6384 5.1712-0.4096z" fill="#63CCFC" p-id="1577"></path><path d="M907.1616 505.2928c0-47.0528-8.2944-92.2112-23.4496-134.0928 0.6144-0.3584 1.2288-0.7168 1.8432-1.1264 43.1104-31.1296 65.8432-81.4592 60.8256-134.5536-6.7072-71.0656-63.232-127.1296-134.4-133.2736-46.7456-4.0448-91.4944 13.5168-122.88 48.0768-0.3584 0.4096-0.7168 0.8704-1.0752 1.3312a392.41728 392.41728 0 0 0-175.9744-41.5232c-63.6928 0-123.8528 15.2576-177.152 42.0864-0.512-0.6656-0.9728-1.3312-1.536-1.8944-31.3856-34.6112-76.1344-52.1216-122.88-48.0768-71.168 6.144-127.6928 62.208-134.4 133.2736-5.0176 53.0944 17.7152 103.424 60.8256 134.5536 1.024 0.7168 2.0992 1.3824 3.2256 1.9456a393.92256 393.92256 0 0 0-23.1936 133.2736c0 122.1632 55.7056 231.5264 143.0528 304.0256L183.808 934.5536c-2.8672 4.7616-2.9696 10.6496-0.256 15.5136a15.4112 15.4112 0 0 0 13.4144 7.8336H289.792c5.9904 0 11.4688-3.5328 13.9776-8.96l39.4752-86.4768a392.63232 392.63232 0 0 0 168.8064 37.9904c61.44 0 119.6032-14.08 171.52-39.2192l40.0384 87.7056a15.31904 15.31904 0 0 0 13.9776 8.96h92.8256c5.5296 0 10.6496-2.9696 13.4144-7.8336 2.7136-4.864 2.6112-10.752-0.256-15.5136l-77.2608-127.0784c85.9648-72.5504 140.8512-181.0944 140.8512-302.1824z m-97.8944-372.48c55.4496 4.7616 101.2224 50.176 106.496 105.5232 3.7888 40.0896-12.3392 78.1312-43.3152 103.0144-28.2112-75.2128-84.6848-138.3936-156.416-174.8992 24.576-24.4224 58.2656-36.6592 93.2352-33.6384zM106.5984 238.3872c5.2224-55.3984 50.9952-100.7616 106.496-105.5232 34.9696-3.072 68.6592 9.216 93.2352 33.6896-71.68 36.5056-128.2048 99.6864-156.416 174.8992-31.0272-24.9344-47.104-62.976-43.3152-103.0656z m209.2544 609.8944l-35.9936 78.8992H224.256l60.16-98.9696c1.792 1.2288 3.584 2.4064 5.376 3.6352 1.1264 0.768 2.2528 1.4848 3.3792 2.2528 4.0448 2.7136 8.0896 5.3248 12.2368 7.8336 1.3824 0.8704 2.7648 1.6896 4.1472 2.5088 2.0992 1.28 4.1984 2.6112 6.2976 3.84z m426.0352-21.7088l61.1328 100.5568h-55.6032l-36.6592-80.3328c1.792-1.0752 3.584-2.2016 5.376-3.328 0.5632-0.3584 1.1264-0.6656 1.6896-1.024 4.7104-2.9184 9.4208-5.888 14.0288-9.0112 0.768-0.512 1.5872-1.0752 2.3552-1.6384 2.5088-1.6896 5.12-3.3792 7.68-5.2224z m-10.9056-30.208c-0.6656 0.512-1.3824 1.024-2.048 1.536-4.096 3.072-8.2944 6.0416-12.544 8.9088-0.4096 0.3072-0.8192 0.5632-1.2288 0.8704-58.0608 39.168-128 62.0032-203.1616 62.0032-62.3104 0-121.0368-15.7696-172.3904-43.4688-1.0752-0.6144-2.2016-1.2288-3.2768-1.792-3.9424-2.2016-7.8848-4.4544-11.776-6.7584-1.024-0.6144-2.048-1.2288-3.0208-1.8432-3.9936-2.4576-7.8848-4.9664-11.776-7.5264-0.8192-0.5632-1.6384-1.1264-2.5088-1.6896-4.096-2.816-8.192-5.6832-12.1344-8.6528-0.512-0.4096-1.0752-0.768-1.5872-1.1776-88.576-66.56-145.92-172.4416-145.92-291.4816 0-200.96 163.4816-364.3904 364.3904-364.3904s364.4416 163.4816 364.4416 364.3904c0 118.784-57.1904 224.4608-145.4592 291.072z" fill="#333333" p-id="1578"></path><path d="M512 188.2624c-174.7968 0-316.9792 142.1824-316.9792 316.9792s142.1824 316.9792 316.9792 316.9792 316.9792-142.1824 316.9792-316.9792c0-174.7456-142.1824-316.9792-316.9792-316.9792z m0 603.2896c-157.8496 0-286.2592-128.4096-286.2592-286.2592S354.1504 218.9824 512 218.9824s286.2592 128.4096 286.2592 286.2592S669.8496 791.552 512 791.552z" fill="#333333" p-id="1579"></path><path d="M720.128 342.528l-43.008-43.008c-5.7856-5.7856-15.9744-5.7856-21.7088 0l-142.5408 142.5408-94.3104-94.3616a15.36 15.36 0 0 0-21.7088 0l-43.008 42.9568c-2.8672 2.8672-4.5056 6.8096-4.5056 10.8544s1.6384 7.9872 4.5056 10.8544l109.9776 109.9776c1.1264 3.1232 2.5088 6.0928 4.1984 8.9088L337.1008 660.992a15.3088 15.3088 0 0 0-0.1024 21.7088c3.0208 3.0208 6.9632 4.5568 10.9056 4.5568 3.8912 0 7.8336-1.4848 10.8032-4.4544l132.1984-130.9696c6.4512 2.9184 13.568 4.608 21.0432 4.608 21.1456 0 39.2704-12.8512 47.104-31.1808l161.024-161.024c2.8672-2.8672 4.5056-6.8096 4.5056-10.8544s-1.536-7.9872-4.4544-10.8544z m-312.4736 37.7344l79.9744 79.9744c-1.9968 1.0752-3.8912 2.3552-5.6832 3.6352-0.4096 0.3072-0.8704 0.6144-1.28 0.9728-1.7408 1.3824-3.4304 2.816-5.0176 4.4032-0.1536 0.1536-0.3072 0.3584-0.4608 0.512-1.4336 1.4848-2.7648 3.072-3.9936 4.7104-0.3072 0.4096-0.6144 0.768-0.9216 1.1776-1.28 1.792-2.4576 3.6864-3.5328 5.6832l-0.1536 0.3072-80.1792-80.128 21.248-21.248zM512 525.7216c-9.6256 0-17.664-6.7072-19.8656-15.7184-0.1024-0.4608-0.2048-0.9216-0.256-1.3824-0.2048-1.1264-0.3584-2.2016-0.3584-3.3792 0-1.4336 0.1536-2.7648 0.4096-4.096a20.48 20.48 0 0 1 24.1664-15.9232c6.656 1.3824 12.0832 5.9904 14.6944 12.0832 1.024 2.4576 1.5872 5.12 1.5872 7.936 0 1.2288-0.1536 2.4576-0.3584 3.6352-0.1024 0.5632-0.256 1.1264-0.4096 1.6384-2.304 8.7552-10.1888 15.2064-19.6096 15.2064z m46.0288-42.8032c-0.1024-0.2048-0.256-0.4096-0.4096-0.6656-1.024-1.9968-2.1504-3.9424-3.3792-5.7856-0.1536-0.2048-0.3072-0.3584-0.4096-0.5632-1.1776-1.6896-2.5088-3.328-3.8912-4.864-0.3072-0.3584-0.6144-0.7168-0.9728-1.0752-1.536-1.6384-3.1744-3.1232-4.9152-4.5568-0.256-0.2048-0.5632-0.4096-0.8704-0.6656-1.5872-1.2288-3.2768-2.3552-4.9664-3.3792-0.256-0.1536-0.4608-0.3584-0.7168-0.4608l128.8192-128.8192 21.248 21.248-129.536 129.5872z" fill="#333333" p-id="1580"></path></svg>