<?xml version="1.0" standalone="no"?><!DOCTYPE svg PUBLIC "-//W3C//DTD SVG 1.1//EN" "http://www.w3.org/Graphics/SVG/1.1/DTD/svg11.dtd"><svg t="1664862410875" class="icon" viewBox="0 0 1024 1024" version="1.1" xmlns="http://www.w3.org/2000/svg" p-id="1396" xmlns:xlink="http://www.w3.org/1999/xlink" width="200" height="200"><path d="M519.3216 341.0432c28.7232 0 54.7328 11.6224 73.6256 30.3616l109.0048-109.6192-159.1808-145.2544a23.41376 23.41376 0 0 0-16.2304-6.5536l-273.4592-0.512c-6.1952 0-9.2672 7.5264-4.8128 11.8784l225.792 225.3824c15.3088-10.3424 15.9232-5.6832 45.2608-5.6832z" fill="#BC9BE0" p-id="1397"></path><path d="M883.5072 136.0384l-247.3472 245.2992c12.0832 26.8288 14.9504 64.1536 6.6048 94.8224-7.6288 27.9552-22.528 43.4176-39.2192 52.48L706.56 634.0096l176.3328-183.6032c4.1984-4.352 6.5536-10.1888 6.5536-16.2304l5.9392-293.3248c0-6.1952-7.5264-9.2672-11.8784-4.8128z" fill="#53ECF4" p-id="1398"></path><path d="M878.6944 807.2704l-273.0496-274.8928c-17.1008 22.2208-55.04 43.8272-83.7632 43.8272-28.7232 0-43.776-3.1232-66.3552-16.9984L361.984 665.9072l151.808 146.688c4.352 4.1984 10.1888 6.5536 16.2304 6.5536h343.8592c6.1952 0 9.2672-7.5776 4.8128-11.8784z" fill="#E56A77" p-id="1399"></path><path d="M414.9248 445.4912c0-28.3136 11.3152-53.9648 29.5936-72.7552L355.3792 286.0544 184.9344 463.104c-4.1984 4.352-6.5536 10.1888-6.5536 16.2304l-3.6864 294.656c0 6.1952 7.5776 9.2672 11.8784 4.8128l259.1232-259.2768a104.1408 104.1408 0 0 1-30.7712-74.0352z" fill="#FCEF7F" p-id="1400"></path><path d="M904.8064 90.3168c0-9.1136-5.4784-17.2032-13.8752-20.6336-8.3968-3.4304-17.92-1.4336-24.2688 5.0176l-164.8128 165.632-172.4928-166.7072a38.30272 38.30272 0 0 0-14.08-8.6528c-4.0448-1.4336-8.3456-2.2016-12.8-2.2016H158.5664c-9.1136 0-17.2032 5.4784-20.6336 13.8752a22.17472 22.17472 0 0 0 5.12 24.3712l164.8128 160.256-169.3696 174.8992c-0.7168 0.768-1.4336 1.536-2.048 2.3552-2.6112 2.4576-4.2496 4.1472-4.7104 4.6592-3.6352 3.9424-4.8128 9.2672-3.6352 14.1312-0.256 1.8944-0.4608 3.7888-0.4608 5.7344v343.8592a22.22592 22.22592 0 0 0 22.3232 22.272c5.888 0 11.5712-2.304 15.7696-6.656l164.864-165.6832 172.4928 166.7072c0.6656 0.6656 1.3824 1.2288 2.0992 1.8432v153.344c0 8.4992 6.8608 15.36 15.36 15.36s15.36-6.8608 15.36-15.36v-144.2816h337.92c9.1136 0 17.2032-5.4784 20.6336-13.8752a22.1696 22.1696 0 0 0-4.9664-24.2176l-161.4336-162.56 165.888-172.7488c0.4608-0.4608 0.8704-0.9728 1.28-1.4336 3.2768-3.1232 5.1712-5.2224 5.6832-5.7856 3.5328-3.9424 4.608-9.1648 3.4304-13.9264 0.256-1.8944 0.4608-3.7888 0.4608-5.7344V90.3168z m-30.72 20.4288V434.176c0 1.5872-0.4608 3.1232-1.3824 4.4544-20.992 19.5584-102.656 83.2-238.336 40.1408 3.072-10.7008 4.7616-21.8624 4.7616-33.28 0-26.9312-8.8064-52.48-25.088-73.3696l260.0448-261.376z m-354.7648 423.8336c-23.7056 0-45.9776-9.216-62.8224-25.9072a88.40704 88.40704 0 0 1-26.2656-63.1296c0-23.2448 8.96-45.312 25.2416-62.0544 16.9472-17.408 39.6288-27.0336 63.7952-27.0336 23.7056 0 45.9776 9.216 62.8224 25.9072 16.9472 16.8448 26.2656 39.2704 26.2656 63.1296 0 23.9104-9.3696 46.336-26.3168 63.1808-16.7424 16.7424-39.0144 25.9072-62.72 25.9072z m72.9088-184.1664c-4.608-3.5328-9.472-6.656-14.4896-9.472 23.0912-71.3216 18.5344-129.3312 4.7104-173.2608l97.6896 94.3616-87.9104 88.3712zM502.4256 93.4912c0.3072 0 0.6144 0.0512 0.9728 0.1024 14.0288 13.056 91.0848 93.0304 45.824 235.8784-9.6256-2.4576-19.6608-3.7376-29.8496-3.7376-27.392 0-53.3504 9.1136-74.4448 25.9584L340.2752 249.9072 179.3536 93.4912h323.072z m-172.544 189.184l74.4448 72.3968 19.1488 18.6368c-3.9424 5.2224-7.424 10.752-10.3936 16.4864-75.1104-24.32-136.5504-19.2-182.5792-4.864l99.3792-102.656z m-171.52 503.808V463.0528c0-1.3824 0.3584-2.6624 1.024-3.84 21.0944-18.7904 106.8544-83.6608 243.2-40.192-1.9456 8.6016-3.0208 17.4592-3.0208 26.4192 0 26.9312 8.8064 52.48 25.088 73.3696l-266.2912 267.6736z m288.1024-245.9136c3.5328 2.7136 7.2192 5.12 11.008 7.424-24.832 75.5712-19.9168 137.216-5.5808 183.3984l-99.584-96.2048 94.1568-94.6176z m83.5072 263.2192c-1.3824 0-2.7136-0.4096-3.9424-1.0752-18.8416-20.992-83.712-106.1376-40.3968-242.2784 10.8032 3.1744 22.1184 4.864 33.6896 4.864 26.6752 0 52.0192-8.6528 72.8576-24.6784l103.5264 104.192h0.0512l157.8496 158.9248h-323.6352z m176.4352-191.7952l-92.416-93.0304c2.9696-3.7888 5.632-7.8336 8.0896-11.9296 37.632 12.288 71.68 17.2032 101.9904 17.2032 29.44 0 55.296-4.608 77.6192-11.4176l-95.2832 99.1744z" fill="#333333" p-id="1401"></path><path d="M535.552 456.6016m-88.2176 0a88.2176 88.2176 0 1 0 176.4352 0 88.2176 88.2176 0 1 0-176.4352 0Z" fill="#FFA750" p-id="1402"></path><path d="M519.3216 565.2992c-66.048 0-119.808-53.76-119.808-119.808s53.76-119.808 119.808-119.808 119.808 53.76 119.808 119.808-53.7088 119.808-119.808 119.808z m0-208.896c-49.1008 0-89.088 39.936-89.088 89.088s39.936 89.088 89.088 89.088 89.088-39.9872 89.088-89.088-39.936-89.088-89.088-89.088z" fill="#333333" p-id="1403"></path></svg>