<?xml version="1.0" standalone="no"?><!DOCTYPE svg PUBLIC "-//W3C//DTD SVG 1.1//EN" "http://www.w3.org/Graphics/SVG/1.1/DTD/svg11.dtd"><svg t="1665332959611" class="icon" viewBox="0 0 1024 1024" version="1.1" xmlns="http://www.w3.org/2000/svg" p-id="1408" width="128" height="128" xmlns:xlink="http://www.w3.org/1999/xlink"><path d="M528.384 223.2832m-47.8208 0a47.8208 47.8208 0 1 0 95.6416 0 47.8208 47.8208 0 1 0-95.6416 0Z" fill="#BC9BE0" p-id="1409"></path><path d="M128.8704 366.9504m-40.8576 0a40.8576 40.8576 0 1 0 81.7152 0 40.8576 40.8576 0 1 0-81.7152 0Z" fill="#BC9BE0" p-id="1410"></path><path d="M921.3952 366.9504m-40.8576 0a40.8576 40.8576 0 1 0 81.7152 0 40.8576 40.8576 0 1 0-81.7152 0Z" fill="#BC9BE0" p-id="1411"></path><path d="M514.9184 286.464c-42.24 0-76.6464-34.4064-76.6464-76.6464s34.4064-76.6464 76.6464-76.6464 76.6464 34.4064 76.6464 76.6464-34.3552 76.6464-76.6464 76.6464z m0-122.5728c-25.344 0-45.9264 20.5824-45.9264 45.9264s20.5824 45.9264 45.9264 45.9264 45.9264-20.5824 45.9264-45.9264-20.5824-45.9264-45.9264-45.9264zM117.0944 424.704c-38.7072 0-70.1952-31.488-70.1952-70.1952s31.488-70.1952 70.1952-70.1952 70.1952 31.488 70.1952 70.1952-31.488 70.1952-70.1952 70.1952z m0-109.6704c-21.76 0-39.4752 17.7152-39.4752 39.4752s17.7152 39.4752 39.4752 39.4752 39.4752-17.7152 39.4752-39.4752-17.7152-39.4752-39.4752-39.4752zM903.1168 424.704c-38.7072 0-70.1952-31.488-70.1952-70.1952s31.488-70.1952 70.1952-70.1952 70.1952 31.488 70.1952 70.1952-31.488 70.1952-70.1952 70.1952z m0-109.6704c-21.76 0-39.4752 17.7152-39.4752 39.4752s17.7152 39.4752 39.4752 39.4752 39.4752-17.7152 39.4752-39.4752-17.7152-39.4752-39.4752-39.4752z" fill="#333333" p-id="1412"></path><path d="M835.5328 499.8656l-122.3168 97.5872c-2.6624 1.4848-5.5296 2.304-8.3968 2.6624a25.00096 25.00096 0 0 1 6.4 22.6816l-20.5824 94.464a25.00608 25.00608 0 0 1-29.7984 19.0976 24.98048 24.98048 0 0 1-19.0976-29.7984l20.5824-94.464c2.4576-11.3664 12.3904-19.1488 23.5008-19.6096l-148.0192-197.12c-7.9872-9.472-23.2448-9.9328-31.8464-0.9216l-144.1792 180.6336c-6.5536 6.8608-17.408 8.4992-25.9584 3.8912L232.8064 499.4048c-15.36-8.2944-34.048 3.9936-30.8224 20.2752l53.8624 288.3072c1.8432 9.1648 10.3936 15.872 20.4288 15.872h514.3552c9.984 0 18.5344-6.6048 20.3776-15.7184l55.6544-288.0512c3.4304-16.5376-15.7696-28.9792-31.1296-20.224z m-467.6608 236.4928c-13.5168 2.9184-26.8288-5.632-29.7984-19.0976l-20.5824-94.464a25.08288 25.08288 0 0 1 19.0976-29.7984c13.5168-2.9184 26.8288 5.632 29.7984 19.0976L387.0208 706.56c2.9184 13.5168-5.632 26.8288-19.1488 29.7984z m179.8144-23.3472a25.0368 25.0368 0 0 1-50.0736 0v-156.1088a25.0368 25.0368 0 0 1 50.0736 0v156.1088z" fill="#EDC951" p-id="1413"></path><path d="M795.904 839.2192H226.6112c-18.4832 0-34.3552-13.2096-37.6832-31.3856v-0.1024l-59.648-338.944c-2.7136-14.7456 3.2768-29.44 15.6672-38.1952 12.3904-8.704 28.2112-9.4208 41.3184-1.792l1.4848 0.9728 124.8768 93.696c2.9184 1.3824 6.4512 0.7168 8.704-1.6384l171.6224-214.4256a38.48704 38.48704 0 0 1 29.7984-12.8512c11.3664 0.3584 21.9648 5.6832 28.9792 14.6432l0.4608 0.6144 152.064 214.8352c2.2528 2.6624 6.0928 3.4304 9.216 1.8944l124.1088-97.0752c13.1072-8.0384 29.1328-7.5264 41.7792 1.2288 12.6464 8.7552 18.688 23.6032 15.8208 38.7072l-61.5936 338.5344c-3.4816 18.176-19.3024 31.2832-37.6832 31.2832zM219.136 802.304c0.6656 3.584 3.84 6.1952 7.4752 6.1952h569.2928c3.6352 0 6.8096-2.6112 7.4752-6.1952l61.5936-338.5344c0.8704-4.5056-1.8944-6.9632-3.1232-7.8336-1.1776-0.8192-4.1472-2.4064-7.68-0.5632l-124.16 97.0752a38.3488 38.3488 0 0 1-50.1248-9.0112l-0.4608-0.6144L527.36 327.9872c-1.8944-2.2528-4.3008-2.6624-5.5808-2.6624-1.2288 0-3.6864 0.2048-5.7344 2.3552l-171.6224 214.4256c-12.032 13.568-32.2048 16.7936-47.9232 7.68l-1.4848-1.024-124.8256-93.7472c-3.5328-1.6896-6.4512-0.1024-7.5776 0.6656-1.1776 0.8704-3.8912 3.2768-3.1232 7.5776L219.136 802.304zM821.0432 914.688H209.2032c-8.4992 0-15.36-6.8608-15.36-15.36s6.8608-15.36 15.36-15.36h611.84c8.4992 0 15.36 6.8608 15.36 15.36s-6.8608 15.36-15.36 15.36z" fill="#333333" p-id="1414"></path><path d="M550.3488 738.048h-1.9968a24.0128 24.0128 0 0 1-24.0128-24.0128v-158.1056c0-13.2608 10.752-24.0128 24.0128-24.0128h1.9968c13.2608 0 24.0128 10.752 24.0128 24.0128v158.1056c0 13.2608-10.752 24.0128-24.0128 24.0128z" fill="#84DDFD" p-id="1415"></path><path d="M523.6736 753.408h-1.9968c-21.7088 0-39.3728-17.664-39.3728-39.3728v-158.1056c0-21.7088 17.664-39.3728 39.3728-39.3728h1.9968c21.7088 0 39.3728 17.664 39.3728 39.3728v158.1056c0 21.7088-17.664 39.3728-39.3728 39.3728z m-1.9968-206.1824c-4.7616 0-8.6528 3.8912-8.6528 8.6528v158.1056c0 4.7616 3.8912 8.6528 8.6528 8.6528h1.9968c4.7616 0 8.6528-3.8912 8.6528-8.6528v-158.1056c0-4.7616-3.8912-8.6528-8.6528-8.6528h-1.9968z" fill="#333333" p-id="1416"></path><path d="M395.52 736.1536l-1.9456 0.4096a24.00256 24.00256 0 0 1-28.5696-18.3296l-21.0432-96.4608a24.00256 24.00256 0 0 1 18.3296-28.5696l1.9456-0.4096a24.00256 24.00256 0 0 1 28.5696 18.3296l21.0432 96.4608a23.9616 23.9616 0 0 1-18.3296 28.5696z" fill="#FF917B" p-id="1417"></path><path d="M361.6768 752.4864a39.3728 39.3728 0 0 1-21.1968-6.2464 39.20384 39.20384 0 0 1-17.2032-24.7296l-21.0432-96.4608c-4.608-21.1968 8.8576-42.24 30.1056-46.848l1.9456-0.4096c10.2912-2.2528 20.8384-0.3584 29.696 5.3248a39.20384 39.20384 0 0 1 17.2032 24.7296l21.0432 96.4608c4.608 21.1968-8.8576 42.24-30.1056 46.848l-1.9968 0.4096c-2.816 0.6144-5.632 0.9216-8.448 0.9216z m-18.944-144.9472c-0.6144 0-1.2288 0.0512-1.8432 0.2048l-1.9456 0.4096c-4.6592 1.024-7.6288 5.632-6.6048 10.2912l21.0432 96.4608c0.512 2.2528 1.8432 4.1984 3.7888 5.4272 1.9456 1.2288 4.2496 1.6384 6.5024 1.1776l1.9968-0.4096c4.6592-1.024 7.6288-5.632 6.6048-10.2912L351.1808 614.4c-0.512-2.2528-1.8432-4.1984-3.7888-5.4272-1.4336-0.9216-3.0208-1.4336-4.6592-1.4336z" fill="#333333" p-id="1418"></path><path d="M686.5408 736.1536l1.9456 0.4096c12.9536 2.816 25.7536-5.376 28.5696-18.3296l21.0432-96.4608a24.00256 24.00256 0 0 0-18.3296-28.5696l-1.9456-0.4096a24.00256 24.00256 0 0 0-28.5696 18.3296l-21.0432 96.4608a23.9616 23.9616 0 0 0 18.3296 28.5696z" fill="#BB9ED8" p-id="1419"></path><path d="M667.0336 752.4864c-2.816 0-5.632-0.3072-8.448-0.9216l-1.9456-0.4096c-21.1968-4.608-34.7136-25.6512-30.1056-46.848l21.0432-96.4608a39.07072 39.07072 0 0 1 17.2032-24.7296 39.00928 39.00928 0 0 1 29.6448-5.3248l1.9968 0.4096c21.1968 4.608 34.7136 25.6512 30.0544 46.848l-21.0432 96.4608a39.07072 39.07072 0 0 1-17.2032 24.7296c-6.4512 4.096-13.7728 6.2464-21.1968 6.2464z m-3.8912-31.3344l1.9456 0.4096c2.304 0.512 4.608 0.1024 6.5536-1.1776s3.2768-3.1744 3.7888-5.4272l21.0432-96.4608c1.024-4.6592-1.9456-9.2672-6.6048-10.2912l-1.9968-0.4096c-4.6592-1.024-9.2672 1.9456-10.2912 6.6048l-21.0432 96.4608c-1.024 4.608 1.9456 9.2672 6.6048 10.2912z" fill="#333333" p-id="1420"></path></svg>